<svg xmlns="http://www.w3.org/2000/svg" width="44" height="44" viewBox="0 0 44 44">
  <g id="d-5" transform="translate(-3.757 -16.7)">
    <path id="Path_34290" data-name="Path 34290" d="M4.636,25.709V2.818A1.818,1.818,0,1,0,1,2.818V43.182A1.818,1.818,0,0,0,2.818,45H8.182a1.818,1.818,0,0,0,0-3.636H4.636V25.709Z" transform="translate(2.757 15.7)" fill="#b3f4fc"/>
    <rect id="Rectangle_1809" data-name="Rectangle 1809" width="8" height="4" rx="2" transform="translate(15.757 56.7)" fill="#b3f4fc"/>
    <rect id="Rectangle_1810" data-name="Rectangle 1810" width="8" height="4" rx="2" transform="translate(27.757 56.7)" fill="#b3f4fc"/>
    <rect id="Rectangle_1811" data-name="Rectangle 1811" width="8" height="4" rx="2" transform="translate(39.757 56.7)" fill="#b3f4fc"/>
    <g id="Ellipse_1187" data-name="Ellipse 1187" transform="translate(37.757 26.7)" fill="none" stroke="#b3f4fc" stroke-width="3">
      <circle cx="4" cy="4" r="4" stroke="none"/>
      <circle cx="4" cy="4" r="2.5" fill="none"/>
    </g>
    <g id="Ellipse_1188" data-name="Ellipse 1188" transform="translate(19.757 26.7)" fill="none" stroke="#b3f4fc" stroke-width="3">
      <circle cx="4" cy="4" r="4" stroke="none"/>
      <circle cx="4" cy="4" r="2.5" fill="none"/>
    </g>
    <g id="Ellipse_1190" data-name="Ellipse 1190" transform="translate(29.757 40.7)" fill="none" stroke="#b3f4fc" stroke-width="3">
      <circle cx="4" cy="4" r="4" stroke="none"/>
      <circle cx="4" cy="4" r="2.5" fill="none"/>
    </g>
    <g id="Ellipse_1189" data-name="Ellipse 1189" transform="translate(10.757 40.7)" fill="none" stroke="#b3f4fc" stroke-width="3">
      <circle cx="4" cy="4" r="4" stroke="none"/>
      <circle cx="4" cy="4" r="2.5" fill="none"/>
    </g>
    <path id="Path_34291" data-name="Path 34291" d="M40.491,32.9,35.1,42.672" fill="none" stroke="#b3f4fc" stroke-width="3"/>
    <path id="Path_34293" data-name="Path 34293" d="M24.818,32.489,31.55,42.4" fill="none" stroke="#b3f4fc" stroke-width="3"/>
    <path id="Path_34292" data-name="Path 34292" d="M40.491,32.9l-5.713,9.591" transform="translate(-18.34)" fill="none" stroke="#b3f4fc" stroke-width="3"/>
  </g>
</svg>
