<svg xmlns="http://www.w3.org/2000/svg" width="55" height="47.999" viewBox="0 0 55 47.999">
  <g id="global_business_home" transform="translate(0 -4.009)">
    <path id="Path_321" data-name="Path 321" d="M28.186,5.094c.5-.044,1-.073,1.51-.085" transform="translate(-2.341)" fill="none" stroke="#60cb5f" stroke-miterlimit="10" stroke-width="2"/>
    <path id="Path_322" data-name="Path 322" d="M24.23,5.731q.719-.178,1.454-.312" transform="translate(-2.001 -0.036)" fill="none" stroke="#60cb5f" stroke-miterlimit="10" stroke-width="2"/>
    <path id="Path_323" data-name="Path 323" d="M20.327,7.021q.618-.264,1.254-.493" transform="translate(-1.665 -0.135)" fill="none" stroke="#60cb5f" stroke-miterlimit="10" stroke-width="2"/>
    <path id="Path_324" data-name="Path 324" d="M12.312,38.259l-3.264,4.9a.912.912,0,0,1-1.479.053l-6.378-8.2a.911.911,0,0,1,.72-1.47l3.408,0a22.43,22.43,0,0,1-.674-5.47A22.7,22.7,0,0,1,16.34,8.3" transform="translate(0 -0.292)" fill="none" stroke="#60cb5f" stroke-miterlimit="10" stroke-width="2"/>
    <path id="Path_325" data-name="Path 325" d="M31.682,54.9c-.488.044-.982.072-1.479.085" transform="translate(-2.515 -3.973)" fill="none" stroke="#60cb5f" stroke-miterlimit="10" stroke-width="2"/>
    <path id="Path_326" data-name="Path 326" d="M35.619,54.242q-.689.171-1.393.3" transform="translate(-2.862 -3.914)" fill="none" stroke="#60cb5f" stroke-miterlimit="10" stroke-width="2"/>
    <path id="Path_327" data-name="Path 327" d="M39.673,52.878q-.631.273-1.282.511" transform="translate(-3.221 -3.793)" fill="none" stroke="#60cb5f" stroke-miterlimit="10" stroke-width="2"/>
    <path id="Path_328" data-name="Path 328" d="M46.226,18.3l3.264-4.9a.912.912,0,0,1,1.479-.053l6.379,8.2a.911.911,0,0,1-.721,1.469H53.282a22.341,22.341,0,0,1,.611,5.467A22.682,22.682,0,0,1,42.542,48.067" transform="translate(-3.537 -0.249)" fill="none" stroke="#60cb5f" stroke-miterlimit="10" stroke-width="2"/>
    <g id="Group_2577" data-name="Group 2577">
      <path id="Path_312" data-name="Path 312" d="M10,30H46.6" transform="translate(-0.8 -1.991)" fill="none" stroke="#ebc35b" stroke-miterlimit="10" stroke-width="2"/>
      <path id="Path_313" data-name="Path 313" d="M29.987,10a23.242,23.242,0,0,1,0,36.906" transform="translate(-2.483 -0.444)" fill="none" stroke="#ebc35b" stroke-miterlimit="10" stroke-width="2"/>
      <path id="Path_314" data-name="Path 314" d="M30,11V46.995" transform="translate(-2.5 -0.532)" fill="none" stroke="#ebc35b" stroke-miterlimit="10" stroke-width="2"/>
      <path id="Path_315" data-name="Path 315" d="M15.551,43.4C17.9,40.8,22.907,39,28.7,39s10.817,1.808,13.164,4.414" transform="translate(-1.216 -2.674)" fill="none" stroke="#ebc35b" stroke-miterlimit="10" stroke-width="2"/>
      <path id="Path_316" data-name="Path 316" d="M21.067,37.166a23.461,23.461,0,0,0,8.139,11.693" transform="translate(-1.72 -2.397)" fill="none" stroke="#ebc35b" stroke-miterlimit="10" stroke-width="2"/>
      <path id="Path_317" data-name="Path 317" d="M20.206,33.181q.1.745.242,1.474" transform="translate(-1.656 -2.235)" fill="none" stroke="#ebc35b" stroke-miterlimit="10" stroke-width="2"/>
      <path id="Path_318" data-name="Path 318" d="M29.111,10A23.085,23.085,0,0,0,20,28.223" transform="translate(-1.627 -0.444)" fill="none" stroke="#ebc35b" stroke-miterlimit="10" stroke-width="2"/>
      <path id="Path_319" data-name="Path 319" d="M28.3,46.906A18.454,18.454,0,1,0,10,28.453,18.377,18.377,0,0,0,28.3,46.906Z" transform="translate(-0.8 -0.444)" fill="none" stroke="#ebc35b" stroke-miterlimit="10" stroke-width="2"/>
      <path id="Path_320" data-name="Path 320" d="M15.545,16.177C17.892,18.783,22.9,20.57,28.7,20.57s10.811-1.8,13.158-4.406" transform="translate(-1.215 -0.878)" fill="none" stroke="#ebc35b" stroke-miterlimit="10" stroke-width="2"/>
    </g>
  </g>
</svg>
