<svg xmlns="http://www.w3.org/2000/svg" width="0" height="0" style="display:none;">
    <symbol id="urban_strategy">
        <g id="" data-name="Urban strategy" transform="translate(-1.099 -6.101)">
            <path id="Union_45" data-name="Union 45"
                  d="M9568.339-1568.922a4.237,4.237,0,0,1,3.331-4.134v-.76h-7.422v-1.8h9.223v2.56a4.237,4.237,0,0,1,3.331,4.134,4.237,4.237,0,0,1-4.23,4.23A4.237,4.237,0,0,1,9568.339-1568.922Zm1.8,0a2.433,2.433,0,0,0,2.43,2.43,2.432,2.432,0,0,0,2.428-2.43,2.433,2.433,0,0,0-2.428-2.432A2.433,2.433,0,0,0,9570.142-1568.922Zm-39.643,0a4.234,4.234,0,0,1,4.229-4.23,4.2,4.2,0,0,1,1.817.411l2.877-2.877h2.985v1.8h-2.24l-2.19,2.19a4.21,4.21,0,0,1,.981,2.706,4.236,4.236,0,0,1-4.23,4.23A4.236,4.236,0,0,1,9530.5-1568.922Zm1.8,0a2.433,2.433,0,0,0,2.43,2.43,2.435,2.435,0,0,0,2.431-2.43,2.435,2.435,0,0,0-2.431-2.432A2.433,2.433,0,0,0,9532.3-1568.922Zm35.3-12.356h-4.562v-1.8h4.562a4.238,4.238,0,0,1,4.134-3.329,4.235,4.235,0,0,1,4.232,4.23,4.237,4.237,0,0,1-4.232,4.23A4.24,4.24,0,0,1,9567.6-1581.278Zm1.7-.9a2.434,2.434,0,0,0,2.43,2.43,2.433,2.433,0,0,0,2.43-2.43,2.431,2.431,0,0,0-2.43-2.43A2.432,2.432,0,0,0,9569.308-1582.177Zm-41.309,0a4.235,4.235,0,0,1,4.23-4.23,4.238,4.238,0,0,1,4.136,3.329h1.692v1.8h-1.692a4.24,4.24,0,0,1-4.136,3.331A4.236,4.236,0,0,1,9528-1582.177Zm1.8,0a2.432,2.432,0,0,0,2.428,2.43,2.433,2.433,0,0,0,2.43-2.43,2.431,2.431,0,0,0-2.43-2.43A2.431,2.431,0,0,0,9529.8-1582.177Zm10.013.9v-1.8h1.666v1.8Zm21.9-5.8v-1.8h2.91l1.842-1.842a4.2,4.2,0,0,1-.628-2.215,4.234,4.234,0,0,1,4.229-4.23,4.235,4.235,0,0,1,4.23,4.23,4.236,4.236,0,0,1-4.23,4.23,4.2,4.2,0,0,1-2.354-.718l-2.345,2.345Zm5.924-5.857a2.434,2.434,0,0,0,2.43,2.43,2.433,2.433,0,0,0,2.431-2.43,2.431,2.431,0,0,0-2.431-2.43A2.433,2.433,0,0,0,9567.642-1592.937Zm-31.235,5.857v-2.541a4.237,4.237,0,0,1-3.41-4.15,4.236,4.236,0,0,1,4.23-4.23,4.236,4.236,0,0,1,4.229,4.23,4.237,4.237,0,0,1-3.249,4.115v.776h6.664v1.8Zm-1.61-6.691a2.433,2.433,0,0,0,2.431,2.432,2.435,2.435,0,0,0,2.43-2.432,2.434,2.434,0,0,0-2.43-2.43A2.433,2.433,0,0,0,9534.8-1593.771Z"
                  transform="translate(-9526.9 1608.263)" style="fill: var(--green-color)"/>
            <path id="Union_44" data-name="Union 44"
                  d="M9565.841-1557.2v-1.8h1.667v1.8Zm-34.511,0v-1.8h2.43v-.766a4.237,4.237,0,0,1,2.729-3.941,8.869,8.869,0,0,1-.975-4.384c0-5.977,2.354-15.237,3.2-18.349a2.568,2.568,0,0,1-1.5-2.334v-7.494a1.734,1.734,0,0,1,1.733-1.731h3.4v5.062h-1.8v-3.263h-1.529v4.86h16.652v-4.86h-1.53v3.263h-1.8V-1598h3.4a1.734,1.734,0,0,1,1.734,1.731v7.494a2.566,2.566,0,0,1-1.4,2.281c.827,3.058,3.211,12.391,3.211,18.4a8.611,8.611,0,0,1-1.083,4.387,4.237,4.237,0,0,1,2.72,3.937v.766h3.266v1.8Zm27.78-1.8v-.766a2.458,2.458,0,0,0-2.48-2.43h-18.587a2.46,2.46,0,0,0-2.482,2.43v.766Zm-2.914-4.994a6.417,6.417,0,0,0,1.276-4.1c0-5.846-2.449-15.349-3.2-18.119H9549.9v-1.8h4.994a.766.766,0,0,0,.767-.764v-.766h-16.652v.766a.766.766,0,0,0,.767.764h4.994v1.8h-4.254c-.749,2.77-3.2,12.273-3.2,18.119a6.232,6.232,0,0,0,1.155,4.1Zm-28.2,6.8v-1.8h1.667v1.8Zm20.185-8.3v-1.8h1.663v1.8Zm-3.364,0v-1.8h1.664v1.8Zm-3.364,0v-1.8h1.664v1.8Zm5.05-20.746v-1.8h1.661v1.8Zm1.594-6.694v-3.263h-1.529v3.263h-1.8V-1598h5.132v5.062Z"
                  transform="translate(-9521.005 1604.1)" style="fill: var(--blue-color)"/>
        </g>
    </symbol>
    <symbol id="urban_enhancement">
        <g id="" data-name="Urban enhancement" transform="translate(-0.743 -3.101)">
            <path id="Union_46" data-name="Union 46"
                  d="M9436.488-1575.943l0,0-15.549-2.948a1.434,1.434,0,0,0-.282-.029,1.511,1.511,0,0,0-1.074.446l-2.016,2.016-1.271-1.273,2.013-2.016a3.306,3.306,0,0,1,2.348-.972,3.4,3.4,0,0,1,.616.059l15.544,2.948a1.493,1.493,0,0,0,.264.024,1.375,1.375,0,0,0,1.343-1.085,7.752,7.752,0,0,1-3.5-2.552l-3.15-.906a3.2,3.2,0,0,1-2.3-3.057l0-2.407a3.929,3.929,0,0,1,1.375-2.995l4.178-3.581,3.115,1.075a7.677,7.677,0,0,1,2.895-.563,7.675,7.675,0,0,1,3.384.782,1.373,1.373,0,0,0,.1-.528,1.27,1.27,0,0,0-.693-1.2l-8.221-3.27a3.153,3.153,0,0,0-1.174-.225,1.746,1.746,0,0,0-.78.183l-16.4,8.368-.818-1.6,16.41-8.375a3.557,3.557,0,0,1,1.584-.372,4.921,4.921,0,0,1,1.84.353l8.222,3.27a3.058,3.058,0,0,1,1.826,2.869,3.173,3.173,0,0,1-.384,1.509,7.7,7.7,0,0,1,2.813,5.956,7.728,7.728,0,0,1-7.718,7.719,7.741,7.741,0,0,1-.85-.047,3.178,3.178,0,0,1-3.1,2.48A3.333,3.333,0,0,1,9436.488-1575.943Zm-1.385-10.1a5.925,5.925,0,0,0,5.919,5.919,5.926,5.926,0,0,0,5.918-5.919,5.924,5.924,0,0,0-5.918-5.919A5.923,5.923,0,0,0,9435.1-1586.042Zm-3.1-3.282a2.14,2.14,0,0,0-.746,1.624l0,2.407a1.384,1.384,0,0,0,1,1.328l1.455.419a7.682,7.682,0,0,1-.414-2.5,7.705,7.705,0,0,1,2.8-5.948l-.705-.244Zm8.11,8.288v-1.282a2.307,2.307,0,0,1-2.1-2.294h1.8a.5.5,0,0,0,.5.5h1.4a.5.5,0,0,0,.5-.5.5.5,0,0,0-.5-.5h-1.4a2.3,2.3,0,0,1-2.3-2.3,2.306,2.306,0,0,1,2.1-2.294v-1.266h1.8v1.266a2.3,2.3,0,0,1,2.1,2.294h-1.8a.5.5,0,0,0-.5-.5h-1.4a.5.5,0,0,0-.5.5.5.5,0,0,0,.5.5h1.4a2.3,2.3,0,0,1,2.3,2.3,2.306,2.306,0,0,1-2.1,2.294v1.282Z"
                  transform="translate(-9415.549 1604.615)" style="fill: var(--green-color)" />
            <path id="Union_47" data-name="Union 47"
                  d="M9416.29-1565.161a6.97,6.97,0,0,1,6.963-6.96,6.971,6.971,0,0,1,6.782,5.391l9.265-.928a6.973,6.973,0,0,1,6.96-6.737q.313,0,.623.028l2.949-12.169a6.973,6.973,0,0,1-4.475-6.5,6.92,6.92,0,0,1,1.272-4.012l1.47,1.037a5.138,5.138,0,0,0-.94,2.975,5.166,5.166,0,0,0,5.161,5.161,5.168,5.168,0,0,0,5.161-5.161,5.168,5.168,0,0,0-5.161-5.161,5.252,5.252,0,0,0-.572.031l-.192-1.79a7.646,7.646,0,0,1,.765-.04,6.969,6.969,0,0,1,6.96,6.96,6.969,6.969,0,0,1-6.96,6.96,7,7,0,0,1-.737-.039l-2.943,12.14a7,7,0,0,1,1.632.854l-1.04,1.469a5.131,5.131,0,0,0-2.972-.94,5.166,5.166,0,0,0-5.161,5.161,5.168,5.168,0,0,0,5.161,5.161,5.169,5.169,0,0,0,5.16-5.161c0-.192-.012-.382-.03-.567l1.787-.2a6.638,6.638,0,0,1,.043.767,6.969,6.969,0,0,1-6.96,6.96,6.974,6.974,0,0,1-6.785-5.393l-9.265.926a6.893,6.893,0,0,1-1.269,3.791l-1.47-1.037a5.125,5.125,0,0,0,.942-2.975,5.166,5.166,0,0,0-5.161-5.161,5.167,5.167,0,0,0-5.161,5.161,5.167,5.167,0,0,0,5.161,5.161,5.23,5.23,0,0,0,.57-.031l.192,1.79a7.608,7.608,0,0,1-.763.04A6.97,6.97,0,0,1,9416.29-1565.161Zm9.1,4.731a5.314,5.314,0,0,0,1.012-.591l1.072,1.446a7.1,7.1,0,0,1-1.36.793Zm25-10.253,1.443-1.075a6.917,6.917,0,0,1,.793,1.363l-1.649.722A5.265,5.265,0,0,0,9450.4-1570.683Zm-2.291-27.942a7.1,7.1,0,0,1,1.36-.793l.727,1.648a5.329,5.329,0,0,0-1.014.589Z"
                  transform="translate(-9413.09 1603.1)" style="fill: var(--blue-color)"/>
        </g>
    </symbol>

    <symbol id="accommodation_and_housing">
        <g id="" aria-placeholder="Accommodation and housing" transform="translate(0.041 0)">
            <path id="Union_17" aria-placeholder="Union 17"
                  d="M309.95-1487.2v-1.6h1.519v1.6Zm-16.05,0v-1.6h14.43v1.6Zm-13.86-3.038v-1.6h4.516v-2.23a5.606,5.606,0,0,1-2.8-1.065A4.63,4.63,0,0,1,280-1499a6.348,6.348,0,0,1,.813-3.047,5.306,5.306,0,0,0,.706-2.649,3.753,3.753,0,0,1,3.838-3.838,3.775,3.775,0,0,1,2.749,1.2,3.888,3.888,0,0,1,1.088,2.641h-1.6a2.3,2.3,0,0,0-2.238-2.238,2.164,2.164,0,0,0-2.237,2.238,6.874,6.874,0,0,1-.869,3.352,4.8,4.8,0,0,0-.65,2.344,3.091,3.091,0,0,0,1.129,2.6,4.326,4.326,0,0,0,2.628.776,4.486,4.486,0,0,0,2.583-.652l.914,1.313a5.534,5.534,0,0,1-2.7.9v2.222h35.286v-11.289h-6.8v-1.6h8.95a.123.123,0,0,0,.124-.122v-1.475a.123.123,0,0,0-.079-.115l-.024-.009-11.552-4.741.607-1.48,11.543,4.738a1.729,1.729,0,0,1,1.105,1.608v1.475a1.725,1.725,0,0,1-1.723,1.723h-.554v11.289h3v1.6Zm7.693-36.446v-1.519h1.518v1.519Zm5.316-2.279v-1.518h1.518v1.518Zm5.316-1.518V-1532h1.518v1.519Z"
                  transform="translate(-280.041 1532)" style="fill: var(--green-color)"/>
            <path id="Union_16" aria-placeholder="Union 16"
                  d="M298.27-1493.256v-2.258h-9.032v2.211h-1.6v-2.338a1.475,1.475,0,0,1,1.473-1.472h.808v-7.317a1.757,1.757,0,0,1,1.755-1.755h4.166a1.757,1.757,0,0,1,1.755,1.755v7.317h.8a1.474,1.474,0,0,1,1.472,1.472v2.385Zm-2.275-3.857v-7.317a.155.155,0,0,0-.155-.155h-4.166a.155.155,0,0,0-.155.155v7.317Zm12.253,3.852v-28.274l-22.093,8.72-.045,19.51-1.6,0,.042-18.874-1.668.658a1.538,1.538,0,0,1-.567.112,1.567,1.567,0,0,1-1.477-1.057l0-.013-.755-2.3a1.505,1.505,0,0,1-.083-.466,1.553,1.553,0,0,1,.982-1.446l13.133-5.185-.782-1.565-7.381,2.812a1.547,1.547,0,0,1-.561.109,1.567,1.567,0,0,1-1.477-1.057l0-.013-.755-2.3a1.506,1.506,0,0,1-.083-.467,1.552,1.552,0,0,1,.982-1.445l.013-.005,15.951-6.079a1.585,1.585,0,0,1,.563-.1,1.566,1.566,0,0,1,1.476,1.057l0,.013.756,2.3a1.51,1.51,0,0,1,.082.466,1.548,1.548,0,0,1-.983,1.445l-.012,0-7.069,2.693.774,1.547,14.246-5.625a1.607,1.607,0,0,1,.565-.105,1.567,1.567,0,0,1,1.477,1.057l0,.013.755,2.3a1.506,1.506,0,0,1,.083.466,1.551,1.551,0,0,1-.984,1.446l-1.906.752v28.905Zm-26.627-21.968.722,2.2,28.775-11.357-.724-2.2Zm3.071-9.113.722,2.2,15.863-6.043-.723-2.2Zm17.415,24.3a1.525,1.525,0,0,1-1.523-1.523v-4.63a1.525,1.525,0,0,1,1.523-1.524h3.111a1.525,1.525,0,0,1,1.523,1.524v4.63a1.525,1.525,0,0,1-1.523,1.523Zm.077-1.6h2.956v-4.476h-2.956Zm-9.134,1.583v-1.519h1.518v1.519Zm9.057-9.093a1.524,1.524,0,0,1-1.523-1.523v-4.63a1.525,1.525,0,0,1,1.523-1.524h3.111a1.525,1.525,0,0,1,1.523,1.524v4.63a1.524,1.524,0,0,1-1.523,1.523Zm.077-1.6h2.956v-4.476h-2.956Z"
                  transform="translate(-277.003 1533.478)" style="fill: var(--blue-color)"/>
        </g>
    </symbol>
    <symbol id="crisis_management">
        <g id="" aria-placeholder="Crisis Management" transform="translate(1 1)">
            <path id="Union_10" aria-placeholder="Union 10"
                  d="M635.011-1513.259l.373-1.965a7.01,7.01,0,0,0,1.305.122,6.929,6.929,0,0,0,2.634-.515l.758,1.85a8.9,8.9,0,0,1-3.392.664A9,9,0,0,1,635.011-1513.259Zm-25.151-5.616a5.008,5.008,0,0,1,.047-.687,5,5,0,0,1-3.907-4.869,5,5,0,0,1,3.929-4.874,5,5,0,0,1,4.908-4.1,4.986,4.986,0,0,1,3.456,1.392,7.373,7.373,0,0,1,5.926-2.987,7.316,7.316,0,0,1,4.473,1.51q.277.211.532.448a5.768,5.768,0,0,1,3.478-1.161,5.791,5.791,0,0,1,5.784,5.784,5.838,5.838,0,0,1-.061.844,5.8,5.8,0,0,1,4.048,5.518,5.791,5.791,0,0,1-5.784,5.784v-2a3.789,3.789,0,0,0,3.784-3.785,3.788,3.788,0,0,0-3.784-3.785,3.755,3.755,0,0,0-2.719,1.152l-1.437-1.391a5.734,5.734,0,0,1,3.909-1.756,3.827,3.827,0,0,0,.044-.583,3.788,3.788,0,0,0-3.784-3.784,3.776,3.776,0,0,0-2.2.708,7.329,7.329,0,0,1,.811,1.821l-1.922.555a5.413,5.413,0,0,0-1.908-2.782,5.326,5.326,0,0,0-3.26-1.1,5.386,5.386,0,0,0-5.379,5.378,5.73,5.73,0,0,0,.035.618l-1.987.225a7.591,7.591,0,0,1-.048-.843,7.346,7.346,0,0,1,.441-2.515,2.99,2.99,0,0,0-2.444-1.269,2.99,2.99,0,0,0-2.987,2.986,2.962,2.962,0,0,0,.92,2.156l-1.385,1.443a4.942,4.942,0,0,1-1.4-2.426,2.991,2.991,0,0,0-1.987,2.814,2.991,2.991,0,0,0,2.59,2.961,4.99,4.99,0,0,1,4.258-2.391v2a2.99,2.99,0,0,0-2.987,2.987,2.989,2.989,0,0,0,2.987,2.986,3,3,0,0,0,.721-.087l.478,1.942a5.034,5.034,0,0,1-1.2.146A4.993,4.993,0,0,1,609.86-1518.875ZM641-1516.588a7.007,7.007,0,0,0,1.044-1.015l1.534,1.282a9.049,9.049,0,0,1-1.341,1.3Zm-12.11-.9a2.991,2.991,0,0,0,2.987-2.987h2a4.992,4.992,0,0,1-4.987,4.987Zm2.182-4.574a5.813,5.813,0,0,1,.287-1.8l1.9.622a3.815,3.815,0,0,0-.187,1.183Zm-13.556-2.694,1.84-.784a5.4,5.4,0,0,0,.655,1.133l-1.6,1.2A7.393,7.393,0,0,1,617.514-1524.753Z"
                  transform="translate(-603.81 1534)" style="fill: var(--green-color)"/>
            <path id="Union_11" aria-placeholder="Union 11"
                  d="M618.163-1496.929a12.435,12.435,0,0,1-7.911-2.707,9.062,9.062,0,0,1-3.455-7.064,24.744,24.744,0,0,1,2.486-10.789l.651-1.4,1.011,1.162a13.254,13.254,0,0,0,2.367,2.053,14.778,14.778,0,0,1,1.268.993,13.928,13.928,0,0,1,4.236-4.408c2.027-1.563,3.777-2.913,3.777-5.119v-1h1a8.429,8.429,0,0,1,6.25,3.35,11.519,11.519,0,0,1,2.724,7.219,24.359,24.359,0,0,1-.13,2.6,13.967,13.967,0,0,1,6.46-1.242h1v1a14.77,14.77,0,0,0,.413,3.9,12.718,12.718,0,0,1,.384,3.279c0,1.777-1.142,3.794-3.132,5.537a9.6,9.6,0,0,1-5.842,2.64Zm10.055-2c2.527-.776,3.484-1.889,3.8-3.595a7.138,7.138,0,0,1-2.854.811,8.887,8.887,0,0,1-3.281-.742l-.923-.392.4-.922a13.93,13.93,0,0,0,1.215-4.526,6.371,6.371,0,0,0-1.913-4.628,14.5,14.5,0,0,1-1.7,2.386,5.032,5.032,0,0,0-1.566,3.837,9.284,9.284,0,0,0,.56,3.222l.368.973-.987.329a8.126,8.126,0,0,1-2.535.463,11.192,11.192,0,0,1-2.256-.293,6.367,6.367,0,0,0,3.223,3.077Zm5.93-5.378a7.749,7.749,0,0,1-1.073,4.469,5.442,5.442,0,0,1-.687.84,8.876,8.876,0,0,0,3.854-2.076c1.511-1.321,2.45-2.866,2.45-4.031a10.735,10.735,0,0,0-.334-2.831,15.538,15.538,0,0,1-.446-3.326,9.605,9.605,0,0,0-5.988,1.906,10.052,10.052,0,0,1-.518,1.4l-1.815-.839a14.278,14.278,0,0,0,.974-5.837,9.494,9.494,0,0,0-2.26-5.938,7.1,7.1,0,0,0-3.813-2.533,6.307,6.307,0,0,1-1.42,2.9,18.746,18.746,0,0,1-3.036,2.709c-1.872,1.444-3.654,2.819-4.106,4.973q.03.12.054.245l-.1.02a5.362,5.362,0,0,0-.061.818,7.252,7.252,0,0,0,1.754,4.733l-1.539,1.278a9.326,9.326,0,0,1-2.215-6.011,7.628,7.628,0,0,1,.055-.925,4.837,4.837,0,0,0-1.741-1.681,20.424,20.424,0,0,1-1.617-1.268,22.317,22.317,0,0,0-1.72,8.62,7.1,7.1,0,0,0,2.724,5.52,10.02,10.02,0,0,0,4.633,2.077,11.584,11.584,0,0,1-2.294-4.091l-.633-1.9,1.9.633a14.912,14.912,0,0,0,3.671.746,4.939,4.939,0,0,0,.956-.105,11.649,11.649,0,0,1-.361-2.882,6.934,6.934,0,0,1,2.029-5.116,10.989,10.989,0,0,0,2.029-3.229l.563-1.408,1.073,1.072c2.57,2.571,3.482,4.426,3.482,7.087a13.41,13.41,0,0,1-.98,4.328,5.8,5.8,0,0,0,1.575.254,8.684,8.684,0,0,0,3.432-1.427l1.555-1.036ZM606-1527.36a8.169,8.169,0,0,1,2.009-5.368l1.507,1.315A6.166,6.166,0,0,0,608-1527.36Zm3.794-6.9a8.229,8.229,0,0,1,1.463-.736l.716,1.868a6.264,6.264,0,0,0-1.106.556Z"
                  transform="translate(-607 1536.929)" style="fill: var(--blue-color)"/>
        </g>
    </symbol>
    <symbol id="economic_growth">
        <g id="" aria-placeholder="Economic growth" transform="translate(0 -4)">
            <path id="Union_37" aria-placeholder="Union 37"
                  d="M729.359-1554.659v-15.971H726v15.971h-2v-17.971h7.36v17.971Zm8.969-2.679v-23.118H734.97v23.118h-2v-25.118h7.36v25.118Zm3.6-2.578v-16.078h2v16.078Zm5.379-.005v-14.292h2v14.292ZM727.68-1574.1v-1.786h1.787v1.786Zm0-3.539v-1.786h1.787v1.786Zm0-3.537v-1.786h1.787v1.786Zm14.259-1.634v-9.932h7.36v4.573h-2v-2.573h-3.36v7.933Zm-5.326-3.67v-1.786H738.4v1.786Zm17.865-2.653v-1.786h1.786v1.786Zm-17.865-.823v-1.786H738.4v1.786Zm17.865-2.68v-1.786h1.786v1.786Zm-17.865-.893v-1.786H738.4v1.786Zm17.865-2.68V-1598h1.786v1.786Z"
                  transform="translate(-724 1602)" style="fill: var(--blue-color)"/>
            <path id="Union_36" aria-placeholder="Union 36"
                  d="M739.308-1565.556a1.9,1.9,0,0,1,1.429-2.263l1.445-.326-.505-.727a10.7,10.7,0,0,0-3.182-3.194c-2.71-1.927-3.5-4.072-4.191-6.472l-1.865-6.491h-5.2L724-1588.263l3.234-3.233h1.457a3.686,3.686,0,0,1-.149-1.038,3.689,3.689,0,0,1,3.19-3.647l13.107-1.779a4.363,4.363,0,0,1,.582-.041,4.28,4.28,0,0,1,3.354,1.614l3.718,4.64h3.4a3.237,3.237,0,0,1,3.234,3.233,3.238,3.238,0,0,1-3.234,3.234H754.66v4.518a13.684,13.684,0,0,1-.6,4.025,6.951,6.951,0,0,0-.29,2.069,6.493,6.493,0,0,0,.333,2.035l.551,1.672.858-.194a1.894,1.894,0,0,1,2.263,1.429l.815,3.608-1.951.441-.791-3.5-14.564,3.289.763,3.382-1.95.44Zm-6.086-24.3a2.177,2.177,0,0,0,.083.6l2.921,10.163c.625,2.176,1.237,3.837,3.428,5.395a12.633,12.633,0,0,1,3.666,3.682l.969,1.393,8.4-1.9-.491-1.488a8.5,8.5,0,0,1-.434-2.661,8.9,8.9,0,0,1,.379-2.656,11.71,11.71,0,0,0,.515-3.438v-4.518h-11.8l.193.345a2.577,2.577,0,0,0,.945.962l3.026,1.769-1.01,1.726-3.026-1.769a4.577,4.577,0,0,1-1.679-1.71l-3.874-6.9a1.176,1.176,0,0,0-.979-.671C733.786-1591.534,733.222-1590.764,733.222-1589.854Zm-6.394,1.59,1.233,1.233h3.8l-.48-1.672a4.164,4.164,0,0,1-.145-.794h-3.176Zm29.065.983a1.234,1.234,0,0,0,1.233-1.234,1.234,1.234,0,0,0-1.233-1.233h-17.54l1.384,2.467Zm-24.331-4.216a3.224,3.224,0,0,1,2.893-2.038,3.145,3.145,0,0,1,2.723,1.691l.053.1h12.7l-2.717-3.389a2.286,2.286,0,0,0-1.794-.863,2.276,2.276,0,0,0-.31.022L732-1594.2a1.684,1.684,0,0,0-1.456,1.665,1.676,1.676,0,0,0,.359,1.038Zm12.081,28.44v-1.786h1.786v1.786Z"
                  transform="translate(-705.126 1611.291)" style="fill: var(--green-color)"/>
        </g>
    </symbol>
    <symbol id="education">
        <g id="" transform="translate(-0.308 -1)">
            <path id="Union_35" aria-placeholder="Union 35"
                  d="M625.073-1572.107c-3.16-1.4-4.9-3.365-4.9-5.527v-8.514l-2.893-1.456v7.558a1.816,1.816,0,0,1,.815,1.514,1.818,1.818,0,0,1-1.815,1.816,1.818,1.818,0,0,1-1.815-1.816,1.815,1.815,0,0,1,.815-1.514v-8.564l-4.005-2.016,24.6-12.374,24.6,12.374-8.9,4.478v8.515c0,2.162-1.74,4.125-4.9,5.527a27.375,27.375,0,0,1-10.8,2A27.375,27.375,0,0,1,625.073-1572.107Zm-2.9-5.527c0,1.3,1.353,2.652,3.711,3.7a25.361,25.361,0,0,0,9.987,1.825,25.361,25.361,0,0,0,9.987-1.825c2.358-1.047,3.71-2.395,3.71-3.7v-7.508l-13.7,6.893-13.7-6.893Zm-6.448-12.991,20.146,10.138,20.146-10.138-20.146-10.137Zm4.633.447v-1.632h1.632v1.632Zm3.271-1.65v-1.632h1.631v1.632Zm3.265-1.65v-1.632h1.631v1.632Z"
                  transform="translate(-610.966 1610.227)" style="fill: var(--blue-color)"/>
            <path id="Union_34" aria-placeholder="Union 34"
                  d="M644.019-1563.946a18.638,18.638,0,0,0,2.718-1.159l.938,1.766a20.458,20.458,0,0,1-3.011,1.286Zm4.839-2.69a6.109,6.109,0,0,0,2.461-4.753v-1.631h2v1.631a7.429,7.429,0,0,1-.866,3.5,9.368,9.368,0,0,1-2.309,2.785Zm-14.617-11.052,2.709-1.385.91,1.781-2.708,1.384Zm4.847-2.542,7.634-3.9.91,1.781-7.634,3.9Zm-27.815-8.464,7.733-3.953.911,1.781-7.733,3.953Zm38.414-2.75v-4.078h2v4.078Zm-28.6-2.318,2.685-1.373.911,1.78L622-1591.981Zm31.227-2.528v-2H656.4v2Zm-7.347,0v-2h4.078v2Zm4.716-2.632V-1603h2v4.078Z"
                  transform="translate(-609.455 1604)" style="fill: var(--green-color)"/>
        </g>
    </symbol>
    <symbol id="energy">
        <g id="" transform="translate(-6 -2)">
            <path id="Union_21" aria-placeholder="Union 21"
                  d="M73.184-1489.344a1.743,1.743,0,0,1,.046-.4l3.093-13.453H63.8a1.792,1.792,0,0,1-1.8-1.782,1.778,1.778,0,0,1,.4-1.127l19.97-24.236a1.793,1.793,0,0,1,1.393-.656,1.792,1.792,0,0,1,1.8,1.782,1.7,1.7,0,0,1-.047.4l-3.092,13.453H94.952a1.793,1.793,0,0,1,1.8,1.782,1.777,1.777,0,0,1-.4,1.127l-9.734,11.814-1.544-1.272,9.435-11.452H82.171a1.792,1.792,0,0,1-1.8-1.781,1.774,1.774,0,0,1,.044-.4l2.96-12.873L64.248-1505.2H76.579a1.793,1.793,0,0,1,1.8,1.782,1.826,1.826,0,0,1-.044.4l-2.96,12.873,8.069-9.794,1.543,1.272-8.611,10.451a1.794,1.794,0,0,1-1.394.656A1.792,1.792,0,0,1,73.184-1489.344Zm6.976-1.714,4-4.964,1.557,1.255-4,4.964Zm6.707-3.114,7.76-9.622,1.557,1.255-7.761,9.622Zm-1.068-3.784,1.581-1.96,1.556,1.256-1.581,1.959Zm-19.265-17.951,1.009-1.25L69.1-1515.9l-1.009,1.25Zm2.658-3.257,5.341-6.622,1.557,1.255-5.341,6.622Z"
                  transform="translate(-53.875 1533.562)" style="fill: var(--blue-color)"/>
            <path id="Union_20" aria-placeholder="Union 20"
                  d="M67.468-1488.781v-1.562H69.03v1.563Zm3.294-1.562v-1.562h1.562v1.562Zm-6.418,0v-1.562h1.562v1.562Zm8.012-3.125v-1.562h1.562v1.562Zm-9.574,0v-1.562h1.562v1.562Zm7.98-3.132v-1.562h1.562v1.562Zm-6.418,0v-1.562h1.562v1.562Zm3.124-1.563v-1.562H69.03v1.562Zm27.284-21.892v-1.562h1.562v1.562Zm-28.845,0v-1.562h1.561v1.562Zm3.262-.782v-1.562h1.562v1.562Zm-6.387,0v-1.562h1.562v1.562Zm35.094-.782v-1.562h1.562v1.562Zm-6.4,0v-1.562h1.562v1.562Zm-21.507-2.351v-1.561h1.562v1.561Zm-7.965,0v-1.561h1.562v1.561Zm37.437-.781v-1.562H101v1.562Zm-9.558,0v-1.562h1.562v1.562Zm-20.711-2.343v-1.562h1.562v1.562Zm-6.387,0v-1.562h1.562v1.562Zm35.094-.781v-1.562h1.562v1.562Zm-6.4,0v-1.562h1.562v1.562Zm-25.566,0v-1.562h1.561v1.562Zm28.845-1.562V-1531h1.562v1.562Z"
                  transform="translate(-56 1533)" style="fill: var(--green-color)"/>
        </g>
    </symbol>
    <symbol id="governance_and_legislation">
        <g id="" aria-placeholder="Governance and Legislation" transform="translate(-0.15 -5.15)">
            <path id="Union_23" aria-placeholder="Union 23"
                  d="M-29.419-1493.558v-1.7h1.5v1.7Zm-15.934,0A4.672,4.672,0,0,1-50-1498.243v-26.073A4.672,4.672,0,0,1-45.353-1529h31.519a5.267,5.267,0,0,1,3.439,1.337,4.466,4.466,0,0,1,1.588,3.347v5.368h-1.7v-2.343H-48.3v23.048a2.969,2.969,0,0,0,2.947,2.984h14.431v1.7Zm34.846-29.433v-1.325a2.794,2.794,0,0,0-1.016-2.075,3.547,3.547,0,0,0-2.311-.909H-45.353a2.969,2.969,0,0,0-2.947,2.984v1.325Zm-31.883,24.737v-1.7h3.658v-2.807h-5.061v4.408h-1.7v-6.108h8.46v6.207Zm6.911-1.517v-1.7h4.506v1.7Zm-.006-3.058v-1.7h3.005v1.7Zm-6.9-3.093v-1.7h3.658v-2.806h-5.061v4.407h-1.7v-6.107h8.46v6.206Zm6.911-1.5v-1.7h4.506v1.7Zm-.006-3.058v-1.7h3.005v1.7Zm-6.9-3.115v-1.7h3.658v-2.807h-5.061v4.408h-1.7v-6.108h8.46v6.206Zm6.911-1.473v-1.7h4.506v1.7Zm-.006-3.059v-1.7h3.005v1.7Zm21.231-6.27v-1.5h1.5v1.5Zm-3,0v-1.5h1.5v1.5Zm-3.005,0v-1.5h1.5v1.5Z"
                  transform="translate(50.15 1534.15)" style="fill: var(--blue-color)"/>
            <path id="Union_22" aria-placeholder="Union 22"
                  d="M-29.873-1501.283l-4.051-5.063a9.81,9.81,0,0,1-3.959.83,9.876,9.876,0,0,1-9.864-9.864,9.876,9.876,0,0,1,9.864-9.864,9.819,9.819,0,0,1,6.269,2.254h2.745a.653.653,0,0,0,.653-.652v-3a.653.653,0,0,0-.653-.652H-47.648a.653.653,0,0,0-.653.652v3a.653.653,0,0,0,.653.652h.751v1.7h-.751A2.356,2.356,0,0,1-50-1523.643v-3A2.356,2.356,0,0,1-47.648-1529h18.778a2.356,2.356,0,0,1,2.353,2.353v3a2.356,2.356,0,0,1-2.353,2.353H-29.99a9.812,9.812,0,0,1,1.972,5.91,9.807,9.807,0,0,1-1.709,5.544l4.118,5.145a2.749,2.749,0,0,1,.6,1.7,2.731,2.731,0,0,1-2.728,2.728A2.717,2.717,0,0,1-29.873-1501.283Zm1.327-1.062a1.026,1.026,0,0,0,.8.386,1.029,1.029,0,0,0,1.028-1.028,1.03,1.03,0,0,0-.225-.644l-3.89-4.861a9.947,9.947,0,0,1-1.582,1.315Zm-17.5-13.036a8.173,8.173,0,0,0,8.164,8.164,8.173,8.173,0,0,0,8.164-8.164,8.173,8.173,0,0,0-8.164-8.164A8.173,8.173,0,0,0-46.047-1515.38Zm11.764,3.695a5.119,5.119,0,0,0,1.559-3.695h1.7a6.805,6.805,0,0,1-2.072,4.912Zm-10.459-3.695a6.884,6.884,0,0,1,3.985-6.231l.713,1.543a5.178,5.178,0,0,0-3,4.687Zm11.416-2.422,1.5-.8a6.833,6.833,0,0,1,.533,1.308l-1.633.475A5.11,5.11,0,0,0-33.326-1517.8Z"
                  transform="translate(70.864 1546.109)" style="fill: var(--green-color)"/>
        </g>
    </symbol>
    <symbol id="health">
        <g id="" transform="translate(0 -2)">
            <path id="Union_39" aria-placeholder="Union 39"
                  d="M836.04-1553v-1.679h1.679V-1553Zm3.262-1.679v-1.679h1.68v1.679Zm-6.621,0v-1.679h1.679v1.679Zm6.719-3.2a3.524,3.524,0,0,1-3.52-3.52,3.5,3.5,0,0,1,.445-1.711,3.526,3.526,0,0,1-2.125-3.231,3.5,3.5,0,0,1,.692-2.093,3.519,3.519,0,0,1-1.531-2.9,3.517,3.517,0,0,1,1.45-2.845,3.5,3.5,0,0,1-.611-1.979,3.5,3.5,0,0,1,1.628-2.968,7.394,7.394,0,0,0,3.113-3.41c.777-1.836,1.138-4.747,1.138-9.16a3.945,3.945,0,0,1,3.94-3.94,3.944,3.944,0,0,1,3.939,3.94c0,.07.01,7.042.8,9.957l-1.929.526c-.866-3.172-.876-10.185-.876-10.482a1.942,1.942,0,0,0-1.94-1.939,1.941,1.941,0,0,0-1.939,1.939c0,4.755-.4,7.82-1.3,9.94a9.321,9.321,0,0,1-3.841,4.291l-.031.021a1.513,1.513,0,0,0-.71,1.287,1.521,1.521,0,0,0,.741,1.305h.778v2.215a3.505,3.505,0,0,1-1.132-.187,1.522,1.522,0,0,0-1.228,1.491,1.522,1.522,0,0,0,1.52,1.52h.283a3.535,3.535,0,0,1,.557-.044v2.044h-.364a1.522,1.522,0,0,0-1.155,1.476,1.521,1.521,0,0,0,1.519,1.519h.861a3.521,3.521,0,0,1,.819-.1v2.1h-.535a1.523,1.523,0,0,0-.985,1.423,1.522,1.522,0,0,0,1.52,1.52h10.079a1.522,1.522,0,0,0,1.52-1.52,1.523,1.523,0,0,0-.985-1.423h-.762v-.1h-6.493v-2h6.719a3.521,3.521,0,0,1,.819.1h.634a1.521,1.521,0,0,0,1.519-1.519,1.522,1.522,0,0,0-1.155-1.476h-9.541v-2h9.177v-.044a3.535,3.535,0,0,1,.557.044h.345a1.522,1.522,0,0,0,1.52-1.52,1.522,1.522,0,0,0-1.52-1.519h-.288a3.524,3.524,0,0,1-.557.044v-.044h-9.234v-2h9.6a1.522,1.522,0,0,0,1.156-1.476,1.521,1.521,0,0,0-1.52-1.519h-8.4v-2h8.4a3.523,3.523,0,0,1,3.52,3.519,3.5,3.5,0,0,1-.689,2.09,3.518,3.518,0,0,1,1.535,2.9,3.519,3.519,0,0,1-1.573,2.931,3.5,3.5,0,0,1,.671,2.065,3.525,3.525,0,0,1-1.946,3.148A3.5,3.5,0,0,1,853-1561.4a3.524,3.524,0,0,1-3.52,3.52Zm-8.4-.16v-1.68h1.68v1.68Zm1.68-3.291v-1.679h1.679v1.679Zm44.8-27.491v-1.68h1.679v1.68Zm-40.761-2.878a7.324,7.324,0,0,1,.131-1.385l1.964.38a5.323,5.323,0,0,0-.094,1.005c0,.092,0,.187.007.289l-2,.1C836.723-1591.445,836.719-1591.573,836.719-1591.7Zm41.6-.42v-1.679H880v1.679Zm-8.3,0v-1.679h1.68v1.679Zm-32.511-3.063a7.3,7.3,0,0,1,6.416-3.817c.126,0,.257,0,.392.011l-.105,2c-.1,0-.2-.007-.286-.007a5.3,5.3,0,0,0-4.659,2.772Zm39.973-.3v-1.679h1.679v1.679Zm-6.719,0v-1.679h1.679v1.679Zm3.36-.84V-1598H875.8v1.68Z"
                  transform="translate(-831 1601)" style="fill: var(--green-color)"/>
            <path id="Union_38" aria-placeholder="Union 38"
                  d="M842.335-1567c-.025-.022-2.537-2.164-5.586-4.756l1.3-1.524c2.133,1.814,4,3.407,4.944,4.209l10.867-9.131,1.287,1.531-12.164,10.221Zm-1.871-21.431-1.583,4.223-1.873-.7,3.456-9.217,5.04,13.439,1.826-4.871h8.253v2h-6.867l-3.212,8.567Zm15.43,8.46a8.857,8.857,0,0,0,1.651-1.687l.013-.018,1.628,1.162-.013.017a10.624,10.624,0,0,1-1.948,2.02Zm2.726-3.508a10.666,10.666,0,0,0,1-4.44,8.623,8.623,0,0,0-2.931-6.51,10.446,10.446,0,0,0-6.982-2.569,8.919,8.919,0,0,0-6.058,2.264l-.666.6-.667-.595a8.959,8.959,0,0,0-6.055-2.265,10.673,10.673,0,0,0-4.449.883l-.815-1.827a12.642,12.642,0,0,1,5.266-1.057,10.97,10.97,0,0,1,6.718,2.224,10.935,10.935,0,0,1,6.726-2.224,12.441,12.441,0,0,1,8.313,3.078,10.594,10.594,0,0,1,3.6,8,12.685,12.685,0,0,1-1.187,5.279Z"
                  transform="translate(-812.463 1609.043)" style="fill: var(--blue-color)"/>
        </g>
    </symbol>
    <symbol id="infrastructure">
        <g id="" transform="translate(1 1)">
            <path id="Union_19" aria-placeholder="Union 19"
                  d="M192.129-1497c.391-.01.783-.032,1.165-.067l.179,1.992c-.425.038-.86.063-1.293.074Zm2.9-.3c.377-.069.747-.149,1.1-.237l.482,1.941c-.391.1-.8.185-1.218.262Zm3-.814c.341-.124.681-.26,1.012-.4l.795,1.835c-.365.158-.743.309-1.12.447Zm3-1.4a18.238,18.238,0,0,0,6.483-6.43,17.65,17.65,0,0,0,2.46-8.986,17.478,17.478,0,0,0-.478-4.3l-.313-1.245h3.568l-4.792-6.162-2.528,3.792-1.664-1.109,2.714-4.072a1.757,1.757,0,0,1,1.462-.782,1.748,1.748,0,0,1,1.388.679l5.3,6.819a1.768,1.768,0,0,1,.369,1.078,1.76,1.76,0,0,1-1.758,1.758h-1.55a21.115,21.115,0,0,1,.277,3.545,19.646,19.646,0,0,1-2.74,10.005,20.239,20.239,0,0,1-7.195,7.137Zm-26.353-2.349-5.3-6.819a1.741,1.741,0,0,1-.37-1.078,1.76,1.76,0,0,1,1.758-1.758l1.594,0a19.732,19.732,0,0,1-.321-3.547,19.641,19.641,0,0,1,2.827-10.153,20.249,20.249,0,0,1,7.408-7.162l.98,1.743a18.236,18.236,0,0,0-6.675,6.453,17.638,17.638,0,0,0-2.54,9.119,17.65,17.65,0,0,0,.531,4.3l.312,1.245-3.62,0,4.793,6.162,2.527-3.793,1.664,1.11-2.714,4.072a1.76,1.76,0,0,1-1.463.782A1.747,1.747,0,0,1,174.674-1501.866ZM176.818-1514v-2h30.363v2Zm7.451-19.359c.365-.156.734-.3,1.1-.432l.676,1.883c-.327.117-.659.248-.987.388Zm3.114-1.042c.428-.106.856-.2,1.272-.273l.355,1.968c-.374.068-.76.15-1.147.246Zm3.154-.525c.446-.04.89-.064,1.319-.075l.047,2c-.387.009-.788.031-1.192.067Z"
                  transform="translate(-170 1534)" style="fill: var(--green-color)"/>
            <path id="Union_18" aria-placeholder="Union 18"
                  d="M173.713-1507.315A16.174,16.174,0,0,1,169-1518.781a16.172,16.172,0,0,1,4.712-11.466A15.933,15.933,0,0,1,185.1-1535a15.934,15.934,0,0,1,11.387,4.754,16.172,16.172,0,0,1,4.712,11.466,16.174,16.174,0,0,1-4.712,11.466,15.936,15.936,0,0,1-11.387,4.753A15.936,15.936,0,0,1,173.713-1507.315Zm17.744-2.394a20.746,20.746,0,0,1-3.448,4.845,13.94,13.94,0,0,0,6.582-3.4,10.488,10.488,0,0,0-3.039-1.63Zm-9.3,4.84a20.687,20.687,0,0,1-1.989-2.424,20.405,20.405,0,0,1-1.551-2.6,10.477,10.477,0,0,0-3.023,1.62A13.942,13.942,0,0,0,182.16-1504.869Zm1.938-.889v-5.165a20.367,20.367,0,0,0-3.518.462A18.78,18.78,0,0,0,184.1-1505.758Zm2-.017a18.8,18.8,0,0,0,3.5-4.685,20.328,20.328,0,0,0-3.5-.461Zm9.868-3.947a14.186,14.186,0,0,0,3.23-9.059,14.188,14.188,0,0,0-3.229-9.058,12.233,12.233,0,0,1-3.609,2.01,19.655,19.655,0,0,1,1.294,7.048,19.652,19.652,0,0,1-1.295,7.049A12.255,12.255,0,0,1,195.968-1509.722ZM171-1518.781a14.186,14.186,0,0,0,3.221,9.048,12.258,12.258,0,0,1,3.595-2q-.237-.623-.431-1.262l1.913-.582q.194.636.436,1.258a22.049,22.049,0,0,1,4.365-.607v-11.712a22.13,22.13,0,0,1-4.367-.6,17.52,17.52,0,0,0-1.2,6.393h-2a19.5,19.5,0,0,1,1.279-6.977,12.22,12.22,0,0,1-3.6-2A14.187,14.187,0,0,0,171-1518.781Zm19.442,6.463a17.673,17.673,0,0,0,1.213-6.463,17.673,17.673,0,0,0-1.212-6.462,22.045,22.045,0,0,1-4.342.605v11.713A22.032,22.032,0,0,1,190.442-1512.318Zm-6.343-14.32v-5.164a18.722,18.722,0,0,0-3.521,4.7A20.44,20.44,0,0,0,184.1-1526.638Zm2,0a20.362,20.362,0,0,0,3.5-.461,18.8,18.8,0,0,0-3.5-4.686Zm-7.48-1.022q.056-.112.113-.223a20.684,20.684,0,0,1,3.435-4.81,13.941,13.941,0,0,0-6.576,3.413A10.446,10.446,0,0,0,178.619-1527.661Zm12.838-.193.1.19a10.461,10.461,0,0,0,3.039-1.631,13.938,13.938,0,0,0-6.583-3.4A20.753,20.753,0,0,1,191.457-1527.854Zm-14.752,11.618,1.984-.258c.049.384.114.775.191,1.16l-1.962.39C176.833-1515.372,176.761-1515.807,176.705-1516.235Z"
                  transform="translate(-163.099 1537.781)" style="fill: var(--blue-color)"/>
        </g>
    </symbol>
    <symbol id="islamic_affairs_jajj_and_umrah">
        <g id="" aria-placeholder="Islamic Affairs, Hajj and Umrah" transform="translate(1 -0.121)">
            <path id="Union_13" aria-placeholder="Union 13"
                  d="M522.774-1485.252l.373-1.965a16.54,16.54,0,0,0,3.075.288,16.322,16.322,0,0,0,6.214-1.215l.757,1.851a18.321,18.321,0,0,1-6.97,1.364A18.462,18.462,0,0,1,522.774-1485.252Zm13.911-5.182a16.536,16.536,0,0,0,2.461-2.39l1.535,1.282a18.654,18.654,0,0,1-2.758,2.678Zm8.095-12.973a21.048,21.048,0,0,0,5.549-2.649c.762-.563,1.67-1.429,1.67-2.352,0-1.139-1.342-2.2-2.469-2.887a31.407,31.407,0,0,0-7.883-3.065v-1.987c7.849,2.129,12.353,4.838,12.353,7.94,0,2.626-2.885,4.945-8.573,6.892Zm-42.78-5c0-3.1,4.5-5.744,12.352-7.873v1.92a31.4,31.4,0,0,0-7.883,3.066c-1.126.688-2.469,1.749-2.469,2.887,0,.509.29,1.33,1.67,2.352a21.051,21.051,0,0,0,5.549,2.648l-.647,1.893C504.884-1503.462,502-1505.781,502-1508.407Zm6.115-12.49a16.681,16.681,0,0,1,8.2-8.346l.843,1.814a14.68,14.68,0,0,0-7.221,7.344Zm13.326-9.73a16.828,16.828,0,0,1,3.341-.157l-.105,2a14.75,14.75,0,0,0-2.942.138Z"
                  transform="translate(-503 1530.929)" style="fill: var(--green-color)"/>
            <path id="Union_12" aria-placeholder="Union 12"
                  d="M516.35-1499.108l-.015,0-12.921-3.44a1.871,1.871,0,0,1-1.413-1.794v-20.636a1.845,1.845,0,0,1,1.049-1.656c2-.951,5.376-2.517,8.09-3.775,1.155-.535,2.209-1.023,3.026-1.4l.006,0A2,2,0,0,1,515-1532a2.054,2.054,0,0,1,.5.062l.015,0,12.921,3.44a1.873,1.873,0,0,1,1.413,1.794v20.636a1.863,1.863,0,0,1-1.09,1.675l-11.075,5.159a1.946,1.946,0,0,1-.831.185A2.053,2.053,0,0,1,516.35-1499.108ZM504-1504.465l11.64,3.1v-11.357L504-1515.7Zm13.64,3.047,10.207-4.754v-11.016l-10.207,4.446v11.324Zm-2-13.37v-4.777l-11.64-2.98v4.776Zm2-.135,10.207-4.446V-1524l-10.207,4.446Zm-1.393-6.55a1.908,1.908,0,0,1,.415.163l11.185-4.872v-.4L515.008-1530l-.007,0c-.816.381-1.868.868-3.02,1.4-2.669,1.237-5.981,2.772-7.98,3.723v.266Z"
                  transform="translate(-490.834 1538.413)" style="fill: var(--blue-color)"/>
        </g>
    </symbol>
    <symbol id="labor_and_social_security">
        <g id="" aria-placeholder="Labor and social Security" transform="translate(-2 -1)">
            <path id="Union_32" aria-placeholder="Union 32"
                  d="M507.11-1569.586v-16.984h3.651v-4.61a9.832,9.832,0,0,1,9.821-9.821,9.832,9.832,0,0,1,9.82,9.821v4.61h3.7v14.966h-2v-12.966H509.11v14.984ZM528.4-1586.57v-4.61a7.829,7.829,0,0,0-7.82-7.821,7.829,7.829,0,0,0-7.821,7.821v4.61Zm6.982,10.549v-2.2h2v2.2Zm-15.825-.766v-3.676h2v3.676Zm-19.56-.856v-11.026h2v11.026Zm35.384-2.313v-13.231h2v13.231Zm-31.71-4.609v-11.025h2v11.025Zm35.384-3.675v-11.026h2v11.026Zm-25.238-3.676v-1.47h1.471v1.47Zm2.252-2.94v-1.47h1.47v1.47Zm3-1.47v-1.471h1.47v1.471Zm-15.4-.735v-2.2h2v2.2Z"
                  transform="translate(-496.06 1602)" style="fill: var(--blue-color)"/>
            <path id="Union_33" aria-placeholder="Union 33"
                  d="M500-1585.585v-2h4.41a.47.47,0,0,0,.47-.47v-8.086a.47.47,0,0,0-.47-.47H500v-2h4.41a2.474,2.474,0,0,1,2.379,1.805l2.19-2a8.328,8.328,0,0,1,5.638-2.191h6.332a2.841,2.841,0,0,1,2.838,2.838,2.825,2.825,0,0,1-.19,1.021h.987a10.665,10.665,0,0,0,4.505-1l5.172-2.431a2.518,2.518,0,0,1,1.082-.241,2.493,2.493,0,0,1,2.511,2.47,2.447,2.447,0,0,1-1.189,2.1c-.276.168-.595.368-.964.6a72.132,72.132,0,0,1-9.693,5.259,36.577,36.577,0,0,1-14.437,3.333h-4.9a2.473,2.473,0,0,1-2.258,1.471Zm11.571-3.47a34.6,34.6,0,0,0,13.641-3.168,70.4,70.4,0,0,0,9.427-5.119c.374-.234.7-.437.985-.611a.46.46,0,0,0,.229-.392.492.492,0,0,0-.511-.47.531.531,0,0,0-.231.05l-5.172,2.431a12.661,12.661,0,0,1-5.356,1.193h-8.127v-2h4.492v-.184a.839.839,0,0,0,.838-.838.839.839,0,0,0-.838-.838h-6.332a6.335,6.335,0,0,0-4.287,1.666l-3.45,3.157v5.122Zm-9.366-5.036v-1.471h1.47v1.471Z"
                  transform="translate(-498 1630.585)" style="fill: var(--green-color)"/>
        </g>
    </symbol>
    <symbol id="media_and_culture">
        <g id="" aria-placeholder="Media and Culture" transform="translate(-3 -1)">
            <path id="Union_25" aria-placeholder="Union 25"
                  d="M-134.753-1501.114a15.154,15.154,0,0,0,2.042-1.561,4.625,4.625,0,0,0-1.769-2.168,5.639,5.639,0,0,0-2.228-1,4.814,4.814,0,0,1-1.635-.666,2.331,2.331,0,0,1-.923-2c0-1.61,1.409-2.16,2.252-2.49a3.452,3.452,0,0,0,.82-.4,1,1,0,0,0-.388-.95,3.69,3.69,0,0,1-1.148-3.077,4.357,4.357,0,0,1,3.512-3.875l.387,1.962a2.4,2.4,0,0,0-1.9,1.913c0,1.108.22,1.325.553,1.652a2.916,2.916,0,0,1,.983,2.38,1.976,1.976,0,0,1-.857,1.639,5.226,5.226,0,0,1-1.236.614,3.976,3.976,0,0,0-.859.408c-.115.09-.121.131-.121.219,0,.394,0,.436,1.085.732a7.586,7.586,0,0,1,2.957,1.369,7.669,7.669,0,0,1,2,2.167,15.145,15.145,0,0,0,1.551-2.258,15.131,15.131,0,0,0,1.922-7.385,15.176,15.176,0,0,0-.511-3.916l1.932-.517a17.225,17.225,0,0,1,.579,4.432,17.146,17.146,0,0,1-2.177,8.363,17.257,17.257,0,0,1-5.751,6.085ZM-160-1513.875a17.079,17.079,0,0,1,2.588-9.056l1.7,1.058a15.084,15.084,0,0,0-2.285,8,15.142,15.142,0,0,0,.633,4.342c.719-.074.965-.254,1.043-.342a1.543,1.543,0,0,0,.163-.929,3.925,3.925,0,0,1,.64-2.18,2.331,2.331,0,0,1,1.9-1.123,4.9,4.9,0,0,1,3.076,1.29,3.617,3.617,0,0,0,2.3,1.013,2.78,2.78,0,0,0,1.669-.417,1.028,1.028,0,0,0,.4-.886,1.6,1.6,0,0,0-.571-1.417,2.794,2.794,0,0,1-.964-2.166,4.1,4.1,0,0,1,1.256-2.945,3.43,3.43,0,0,0,1.048-2.686c0-.155-.188-1.3-.89-1.3v-2a2.666,2.666,0,0,1,2.331,1.389,4.012,4.012,0,0,1,.559,1.915,5.378,5.378,0,0,1-1.541,4,2.18,2.18,0,0,0-.763,1.631c0,.367.084.452.392.767a3.543,3.543,0,0,1,1.144,2.817,3.042,3.042,0,0,1-1.183,2.472,4.638,4.638,0,0,1-2.889.831,5.523,5.523,0,0,1-3.5-1.417,3.118,3.118,0,0,0-1.863-.887,1.526,1.526,0,0,0-.545,1.3,3.177,3.177,0,0,1-.67,2.261,3.1,3.1,0,0,1-1.818.925,15.077,15.077,0,0,0,1.08,1.971l-1.677,1.09A17.066,17.066,0,0,1-160-1513.875Zm23.841-13.557a14.978,14.978,0,0,0-6.716-1.569,15.2,15.2,0,0,0-3.488.4l-.459-1.947a17.219,17.219,0,0,1,3.947-.457,16.953,16.953,0,0,1,7.606,1.777,17.277,17.277,0,0,1,5.858,4.764l-1.571,1.237A15.283,15.283,0,0,0-136.159-1527.431Z"
                  transform="translate(168.214 1535.071)" style="fill: var(--blue-color)"/>
            <path id="Union_24" aria-placeholder="Union 24"
                  d="M-142.636-1486.863l-11-4.492a2.539,2.539,0,0,1-2.524,2.283H-160v-2h3.839a.536.536,0,0,0,.535-.536v-9.982a.536.536,0,0,0-.535-.536H-160v-2h3.839a2.539,2.539,0,0,1,2.524,2.284l1.466-.653a9.933,9.933,0,0,1,4.064-.864,9.947,9.947,0,0,1,3.852.772l11.516,4.811a3.633,3.633,0,0,1,1.152.762l8.178-3.815a2.631,2.631,0,0,1,1.152-.226,3.284,3.284,0,0,1,3.258,3.3,3.359,3.359,0,0,1-1.532,2.8l-11.551,7.185A11.659,11.659,0,0,1-138.24-1486,11.6,11.6,0,0,1-142.636-1486.863Zm.756-1.852a9.6,9.6,0,0,0,3.64.715,9.652,9.652,0,0,0,5.1-1.463l11.55-7.184a1.354,1.354,0,0,0,.59-1.1,1.284,1.284,0,0,0-1.258-1.3.682.682,0,0,0-.344.055l-8.039,3.752a3.158,3.158,0,0,1,.052.568,3.308,3.308,0,0,1-3.3,3.3,3.008,3.008,0,0,1-.775-.094l-9.292-2.434.507-1.935,9.292,2.435a1.07,1.07,0,0,0,.268.028,1.3,1.3,0,0,0,1.3-1.3,1.4,1.4,0,0,0-.922-1.249l-11.515-4.811a7.95,7.95,0,0,0-3.082-.618,7.954,7.954,0,0,0-3.251.691l-2.267,1.009v6.147Zm12.705-25.233a4.858,4.858,0,0,1-1.04-3,4.845,4.845,0,0,1,4.839-4.839,4.845,4.845,0,0,1,4.839,4.839,4.865,4.865,0,0,1-1.041,3l-3.8,5.228Zm.96-3a2.8,2.8,0,0,0,.618,1.768l.028.037,2.193,3.019,2.218-3.053a2.813,2.813,0,0,0,.62-1.772,2.842,2.842,0,0,0-2.84-2.839A2.842,2.842,0,0,0-128.214-1516.946Zm-23.74-2.165a7.461,7.461,0,0,1-1.555-4.563,7.244,7.244,0,0,1,7.142-7.325,7.244,7.244,0,0,1,7.143,7.325,7.471,7.471,0,0,1-1.554,4.562l-.016.02-5.573,6.795Zm.445-4.563a5.386,5.386,0,0,0,1.126,3.325l4.017,4.9,4.018-4.9a5.384,5.384,0,0,0,1.126-3.325,5.243,5.243,0,0,0-5.143-5.325A5.242,5.242,0,0,0-151.51-1523.675Zm25.366,7.5v-1.535h1.536v1.535Zm-23.561-7.679a3.306,3.306,0,0,1,3.3-3.3,3.307,3.307,0,0,1,3.3,3.3,3.308,3.308,0,0,1-3.3,3.3A3.307,3.307,0,0,1-149.7-1523.858Zm2,0a1.305,1.305,0,0,0,1.3,1.3,1.306,1.306,0,0,0,1.3-1.3,1.305,1.305,0,0,0-1.3-1.3A1.305,1.305,0,0,0-147.7-1523.858Z"
                  transform="translate(163 1532)" style="fill: var(--green-color)"/>
        </g>
    </symbol>
    <symbol id="municipal_funding">
        <g id="" aria-placeholder="Municipal Funding" transform="translate(-3 -1.785)">
            <path id="Union_29" aria-placeholder="Union 29"
                  d="M284.743-1583.308l1.009-1.726a7.638,7.638,0,0,0,3.853,1.04,7.635,7.635,0,0,0,3.911-1.074l1.024,1.718a9.636,9.636,0,0,1-4.936,1.356A9.636,9.636,0,0,1,284.743-1583.308Zm3.85-1.766v-1.039a4.183,4.183,0,0,1-1.631-.727,2.934,2.934,0,0,1-1.245-2.329h2c0,.55.773,1.162,1.883,1.162s1.883-.612,1.883-1.162-.773-1.162-1.883-1.162a4.408,4.408,0,0,1-2.638-.833,2.934,2.934,0,0,1-1.245-2.329,2.933,2.933,0,0,1,1.245-2.328,4.183,4.183,0,0,1,1.631-.727v-1.043h2v1.04a4.185,4.185,0,0,1,1.645.73,2.933,2.933,0,0,1,1.245,2.328h-2c0-.55-.773-1.162-1.883-1.162s-1.883.612-1.883,1.162.773,1.162,1.883,1.162a4.409,4.409,0,0,1,2.638.833,2.933,2.933,0,0,1,1.245,2.328,2.934,2.934,0,0,1-1.245,2.329,4.187,4.187,0,0,1-1.645.73v1.036Zm7.995-2.815a7.576,7.576,0,0,0,.707-3.217,7.656,7.656,0,0,0-7.647-7.648,7.657,7.657,0,0,0-7.648,7.648c0,.215.01.438.028.659l-1.993.165c-.023-.276-.034-.554-.034-.824a9.659,9.659,0,0,1,9.648-9.648,9.659,9.659,0,0,1,9.648,9.648,9.577,9.577,0,0,1-.894,4.059Zm-2.331-12.642.895-1.789a12.546,12.546,0,0,1,5.117,4.712l-1.709,1.039A10.551,10.551,0,0,0,294.257-1600.531Z"
                  transform="translate(-274.838 1604.106)" style="fill: var(--blue-color)"/>
            <path id="Union_28" aria-placeholder="Union 28"
                  d="M314.676-1572.214a2.444,2.444,0,0,1-2.441-2.442v-.441H295.181a6.757,6.757,0,0,1-5.135-2.362l-6.007-7.007a6.794,6.794,0,0,1-1.451-2.862l-2.494-10.655a3.634,3.634,0,0,1-.095-.823,3.518,3.518,0,0,1,3.514-3.514,3.5,3.5,0,0,1,3.357,2.478l2.616,8.477a2.613,2.613,0,0,0,1.108,1.439l3.576,2.235a3.325,3.325,0,0,0,1.762.505h3.208a1.039,1.039,0,0,0,1.038-1.038,1.048,1.048,0,0,0-.3-.734l-3.552-3.552a4.031,4.031,0,0,1-1.189-2.869,4.063,4.063,0,0,1,4.058-4.058,4.031,4.031,0,0,1,2.869,1.189l8.56,8.56a1.154,1.154,0,0,0,.822.34h.793v-.441a2.444,2.444,0,0,1,2.441-2.442H319v2h-4.324a.442.442,0,0,0-.441.441v15.134a.442.442,0,0,0,.441.441H319v2ZM282-1598.807a1.6,1.6,0,0,0,.043.369l2.493,10.654a4.789,4.789,0,0,0,1.021,2.016l6.007,7.007a4.76,4.76,0,0,0,3.617,1.662h17.054v-10.251h-.793a3.14,3.14,0,0,1-2.237-.926l-8.56-8.56a2.044,2.044,0,0,0-1.454-.6,2.061,2.061,0,0,0-2.058,2.058,2.044,2.044,0,0,0,.6,1.454l3.552,3.552a3.059,3.059,0,0,1,.889,2.148,3.042,3.042,0,0,1-3.038,3.038h-3.208a5.319,5.319,0,0,1-2.822-.809l-3.576-2.235a4.607,4.607,0,0,1-1.959-2.545l-2.616-8.477a1.507,1.507,0,0,0-1.446-1.067A1.515,1.515,0,0,0,282-1598.807Zm33.4,11.617v-1.442h1.441v1.442Z"
                  transform="translate(-277 1613.895)" style="fill: var(--green-color)"/>
        </g>
    </symbol>
    <symbol id="population_and_demographics">
        <g id="" aria-placeholder="Population and demographics" transform="translate(0 0.75)">
            <path id="Union_6" aria-placeholder="Union 6"
                  d="M855.357-1516.118v-1.5h6.888v-2.726c0-.534-1.369-1.342-3.433-1.342a6.9,6.9,0,0,0-1.837.238l-.4-1.445a8.443,8.443,0,0,1,2.242-.292,6.271,6.271,0,0,1,4.2,1.309,6.277,6.277,0,0,1,4.2-1.306,8.426,8.426,0,0,1,2.241.292l-.4,1.444a6.939,6.939,0,0,0-1.837-.237c-2.065,0-3.434.807-3.434,1.341h-.032v2.722H870v1.5Zm-27.357,0v-1.5h6.92v-2.726c0-.534-1.37-1.342-3.433-1.342a6.9,6.9,0,0,0-1.838.238l-.4-1.445a8.438,8.438,0,0,1,2.242-.292,6.266,6.266,0,0,1,4.2,1.311,6.274,6.274,0,0,1,4.2-1.307,8.426,8.426,0,0,1,2.241.292l-.4,1.444a6.939,6.939,0,0,0-1.837-.237c-2.065,0-3.434.807-3.434,1.341h-.036v2.722h6.224v1.5Zm36.369-10.462a2.845,2.845,0,0,1,2.842-2.841,2.844,2.844,0,0,1,2.841,2.841,2.845,2.845,0,0,1-2.841,2.842A2.846,2.846,0,0,1,864.369-1526.58Zm1.5,0a1.344,1.344,0,0,0,1.342,1.342,1.344,1.344,0,0,0,1.342-1.342,1.344,1.344,0,0,0-1.342-1.342A1.344,1.344,0,0,0,865.869-1526.58Zm-9.907,0a2.845,2.845,0,0,1,2.842-2.841,2.844,2.844,0,0,1,2.841,2.841,2.845,2.845,0,0,1-2.841,2.842A2.846,2.846,0,0,1,855.962-1526.58Zm1.5,0a1.344,1.344,0,0,0,1.342,1.342,1.344,1.344,0,0,0,1.342-1.342,1.344,1.344,0,0,0-1.342-1.342A1.344,1.344,0,0,0,857.462-1526.58Zm-20.408,0a2.845,2.845,0,0,1,2.842-2.841,2.844,2.844,0,0,1,2.841,2.841,2.845,2.845,0,0,1-2.841,2.842A2.846,2.846,0,0,1,837.054-1526.58Zm1.5,0a1.344,1.344,0,0,0,1.342,1.342,1.344,1.344,0,0,0,1.342-1.342,1.344,1.344,0,0,0-1.342-1.342A1.344,1.344,0,0,0,838.554-1526.58Zm-9.91,0a2.845,2.845,0,0,1,2.842-2.841,2.844,2.844,0,0,1,2.841,2.841,2.845,2.845,0,0,1-2.841,2.842A2.846,2.846,0,0,1,828.644-1526.58Zm1.5,0a1.344,1.344,0,0,0,1.342,1.342,1.344,1.344,0,0,0,1.342-1.342,1.344,1.344,0,0,0-1.342-1.342A1.344,1.344,0,0,0,830.145-1526.58Zm18.116.678h-.022c0-.534-1.37-1.341-3.433-1.341-.191,0-.38.006-.562.021l-.113-1.5c.219-.017.446-.025.675-.025a6.282,6.282,0,0,1,4.194,1.3,6.282,6.282,0,0,1,4.195-1.3c.229,0,.455.008.675.025l-.113,1.5c-.182-.014-.371-.021-.562-.021-2.065,0-3.434.807-3.434,1.341Zm11.228-6.256A2.845,2.845,0,0,1,862.33-1535a2.845,2.845,0,0,1,2.842,2.842,2.845,2.845,0,0,1-2.842,2.842A2.845,2.845,0,0,1,859.488-1532.158Zm1.5,0a1.343,1.343,0,0,0,1.341,1.342,1.343,1.343,0,0,0,1.342-1.342,1.343,1.343,0,0,0-1.342-1.342A1.343,1.343,0,0,0,860.989-1532.158Zm-9.928,0A2.845,2.845,0,0,1,853.9-1535a2.846,2.846,0,0,1,2.842,2.842,2.846,2.846,0,0,1-2.842,2.842A2.845,2.845,0,0,1,851.061-1532.158Zm1.5,0a1.344,1.344,0,0,0,1.342,1.342,1.344,1.344,0,0,0,1.342-1.342,1.344,1.344,0,0,0-1.342-1.342A1.344,1.344,0,0,0,852.56-1532.158Zm-11.3,0A2.845,2.845,0,0,1,844.1-1535a2.846,2.846,0,0,1,2.842,2.842,2.846,2.846,0,0,1-2.842,2.842A2.845,2.845,0,0,1,841.256-1532.158Zm1.5,0a1.343,1.343,0,0,0,1.341,1.342,1.344,1.344,0,0,0,1.342-1.342,1.344,1.344,0,0,0-1.342-1.342A1.343,1.343,0,0,0,842.756-1532.158Zm-9.928,0A2.845,2.845,0,0,1,835.67-1535a2.846,2.846,0,0,1,2.842,2.842,2.846,2.846,0,0,1-2.842,2.842A2.845,2.845,0,0,1,832.828-1532.158Zm1.5,0a1.344,1.344,0,0,0,1.342,1.342,1.344,1.344,0,0,0,1.342-1.342,1.344,1.344,0,0,0-1.342-1.342A1.344,1.344,0,0,0,834.328-1532.158Z"
                  transform="translate(-828 1534.25)" style="fill: var(--blue-color)"/>
            <path id="Union_7" aria-placeholder="Union 7"
                  d="M850.417-1506.581v-11.767l6.682,1.9a1.371,1.371,0,0,0,.374.051,1.351,1.351,0,0,0,.75-.225l4.2-2.789a1.339,1.339,0,0,0,.6-1.117,1.349,1.349,0,0,0-1.352-1.342,1.35,1.35,0,0,0-.75.226l-3.683,2.443-6.186-1.76a5.627,5.627,0,0,0-1.527-.212H843a5.6,5.6,0,0,0-1.527.213l-6.185,1.759-3.684-2.444a1.358,1.358,0,0,0-.751-.225,1.348,1.348,0,0,0-1.351,1.342,1.339,1.339,0,0,0,.6,1.117l4.2,2.789a1.348,1.348,0,0,0,.75.225,1.371,1.371,0,0,0,.374-.051l6.682-1.9v11.767h-1.5v-9.78L835.839-1515a2.881,2.881,0,0,1-.784.109,2.848,2.848,0,0,1-1.579-.475l-4.2-2.789a2.837,2.837,0,0,1-1.273-2.367,2.849,2.849,0,0,1,2.851-2.841,2.855,2.855,0,0,1,1.58.474l3.109,2.063,5.521-1.571a7.1,7.1,0,0,1,1.937-.27h6.532a7.1,7.1,0,0,1,1.937.27l5.522,1.571,3.108-2.062a2.845,2.845,0,0,1,1.579-.475,2.85,2.85,0,0,1,2.852,2.841,2.837,2.837,0,0,1-1.273,2.367l-4.2,2.789a2.855,2.855,0,0,1-1.579.475,2.869,2.869,0,0,1-.783-.109l-4.772-1.357v9.78Zm-9.087-22.788c0-3.1,2.213-5.631,4.934-5.631s4.934,2.526,4.934,5.631-2.213,5.631-4.934,5.631S841.33-1526.264,841.33-1529.369Zm1.5,0c0,2.278,1.54,4.131,3.434,4.131s3.433-1.853,3.433-4.131-1.54-4.131-3.433-4.131S842.83-1531.647,842.83-1529.369Z"
                  transform="translate(-825.264 1544.581)" style="fill: var(--green-color)"/>
        </g>
    </symbol>
    <symbol id="safety_and_security">
        <g id="" aria-placeholder="Safety and Security" transform="translate(0.695 1)">
            <path id="Union_15" aria-placeholder="Union 15"
                  d="M392.214-1507.607l3.177-3.177,1.415,1.414-3.178,3.177Zm9.792-5.393c-4.437-3.614-6.687-7.053-6.687-10.224h2c0,2.5,2.057,5.5,5.95,8.673a45.3,45.3,0,0,0,6.163,4.182l-.953,1.758A46.446,46.446,0,0,1,402.006-1513Zm-13.485.742,4.245-2.054.871,1.8-4.246,2.054Zm-.521-4.348v-2h4.589v2Zm30.045-1c1.593-1.877,2.4-3.615,2.4-5.163a5.891,5.891,0,0,0-5.883-5.884c-1.708,0-3.217.815-5.043,2.726l-.727.76-.723-.765a9.575,9.575,0,0,0-2.913-2.263l.827-1.821a10.286,10.286,0,0,1,2.816,1.983,8.37,8.37,0,0,1,5.763-2.62,7.892,7.892,0,0,1,7.883,7.884c0,2.036-.365,3.41-2.273,5.659Zm5.613-4.963v-2h4.59v2Zm-1.028-6.042,4.215-2.1.893,1.79-4.216,2.1Zm-3.189-3.214,3.178-3.178,1.414,1.415-3.177,3.177Z"
                  transform="translate(-386.781 1539.214)" style="fill: var(--green-color)"/>
            <path id="Union_14" aria-placeholder="Union 14"
                  d="M401.336-1497.351a2.636,2.636,0,0,1-2-2.474,2.519,2.519,0,0,1,.729-1.785,2.511,2.511,0,0,1,1.8-.744h.04l6.69.539a2.909,2.909,0,0,1-.082-.687,3.229,3.229,0,0,1,.868-2.177l.022-.025c.162-.18,3.982-4.42,5.569-5.815,4.581-4.027,13.294-4.073,13.663-4.073v2c-.083,0-8.33.049-12.343,3.576-1.459,1.282-5.153,5.374-5.391,5.638a1.243,1.243,0,0,0-.388.877.913.913,0,0,0,.812.907l.023,0h0q.038,0,.077,0c.111,0,.276,0,.664-.279l5.761-4.512,1.233,1.575-5.806,4.546a3.034,3.034,0,0,1-1.852.67q-.141,0-.279-.013l-9.313-.751a.516.516,0,0,0-.5.528.654.654,0,0,0,.473.53h.005c.094.023,9.4,2.294,13.819,2.294,3.053,0,4.889-1.993,7.015-4.3.706-.767,1.436-1.559,2.246-2.316a56.684,56.684,0,0,1,5.225-4.29l1.159,1.629a56.081,56.081,0,0,0-5.019,4.123c-.755.706-1.46,1.47-2.141,2.209-2.239,2.431-4.555,4.944-8.485,4.944C410.981-1495,401.759-1497.246,401.336-1497.351Zm-9.892-20.057c.08,0,8.111-.05,12.362-3.593a68.629,68.629,0,0,0,4.852-5.088c.053-.063.112-.131.175-.2.292-.336.733-.842.733-1.207a.838.838,0,0,0-.912-.912c-.174,0-.3,0-.651.268l-5.746,4.521-1.237-1.572,5.761-4.532a2.825,2.825,0,0,1,1.872-.684q.163,0,.321.016h0l9.269.749a.531.531,0,0,0,.5-.529.529.529,0,0,0-.427-.52l-.05-.011c-.094-.023-9.4-2.293-13.82-2.293a8.878,8.878,0,0,0-4.377,1.516,30.271,30.271,0,0,0-4.883,3.824c-2.484,2.321-5.764,5.49-5.8,5.521l-1.39-1.438c.033-.031,3.325-3.212,5.821-5.544a32.3,32.3,0,0,1,5.216-4.077,10.784,10.784,0,0,1,5.409-1.8c4.591,0,13.642,2.192,14.274,2.346a2.532,2.532,0,0,1,2.024,2.479,2.533,2.533,0,0,1-2.53,2.53h-.04l-6.682-.54a3.2,3.2,0,0,1,.073.686,4.018,4.018,0,0,1-1.223,2.52c-.056.064-.109.124-.155.18l-.014.016a69.45,69.45,0,0,1-5.086,5.319c-4.812,4.01-13.285,4.055-13.643,4.055Z"
                  transform="translate(-388.695 1534)" style="fill: var(--blue-color)"/>
        </g>
    </symbol>
    <symbol id="tourism_leisure_and_sports">
        <g id="" aria-placeholder="Tourism, leisure and sports" transform="translate(-1.1 -2.1)">
            <path id="Union_27" aria-placeholder="Union 27"
                  d="M175.135-1560.6l-.005,0a14.57,14.57,0,0,1-4.641-4.665,3.442,3.442,0,0,1-.488-1.823,3.262,3.262,0,0,1,1.494-2.746l8.385-5.584a14.507,14.507,0,0,1-1.91-7.209,14.5,14.5,0,0,1,1.11-5.581,14.577,14.577,0,0,1,3.155-4.723l3.8-3.8A14.5,14.5,0,0,1,196.338-1601a14.473,14.473,0,0,1,10.3,4.269,14.475,14.475,0,0,1,4.269,10.3,14.546,14.546,0,0,1-2.192,7.688l-1.529-.95a12.737,12.737,0,0,0,1.921-6.737,12.686,12.686,0,0,0-3.741-9.031,12.686,12.686,0,0,0-9.031-3.741,12.716,12.716,0,0,0-9.033,3.74l-3.8,3.8a12.724,12.724,0,0,0-3.548,6.811l14.557,14.557a12.57,12.57,0,0,0,3.924-1.227l.808,1.608a14.408,14.408,0,0,1-6.529,1.543,14.466,14.466,0,0,1-7.193-1.9l-5.806,8.664a3.263,3.263,0,0,1-2.745,1.492A3.484,3.484,0,0,1,175.135-1560.6Zm8.963-15.469-11.605,7.729a1.472,1.472,0,0,0-.692,1.248,1.693,1.693,0,0,0,.21.863l0,.005a12.807,12.807,0,0,0,4.073,4.095,1.742,1.742,0,0,0,.89.213,1.474,1.474,0,0,0,1.249-.693l7.723-11.528,1.5,1-.912,1.361a12.652,12.652,0,0,0,5.548,1.586l-12.311-12.31a12.712,12.712,0,0,0,1.611,6.075l1.72-1.145Z"
                  transform="translate(-168.9 1603.1)" style="fill: var(--green-color)"/>
            <path id="Union_26" aria-placeholder="Union 26"
                  d="M202.855-1565.084l1.273-1.273,2.359,2.358-1.273,1.273Zm-3.026-3.027,1.273-1.273,1.617,1.617-1.273,1.273Zm4.52-2.315,1.273-1.273,3.189,3.189-1.273,1.273Zm-7.485-.667,1.273-1.273,1.632,1.632-1.273,1.273Zm4.472-2.254,1.273-1.274,1.653,1.654-1.273,1.273Zm-12.733-7.721a7.685,7.685,0,0,1,1.383-4.415,7.716,7.716,0,0,1,3.546-2.8l.653,1.677a5.93,5.93,0,0,0-2.723,2.146,5.9,5.9,0,0,0-1.06,3.388,5.942,5.942,0,0,0,5.936,5.935,5.942,5.942,0,0,0,5.936-5.935,5.9,5.9,0,0,0-1.057-3.382,5.926,5.926,0,0,0-2.714-2.146l.657-1.676a7.721,7.721,0,0,1,3.535,2.8,7.694,7.694,0,0,1,1.378,4.409,7.744,7.744,0,0,1-7.736,7.735A7.745,7.745,0,0,1,188.6-1581.067Zm18.369,6.792v-1.519h1.519v1.519Zm-2.279-2.268v-1.519h1.519v1.519Zm-12.911-4.514a4.831,4.831,0,0,1,.061-.763l1.777.288a2.918,2.918,0,0,0-.039.475,2.874,2.874,0,0,0,.218,1.105l-1.663.688A4.663,4.663,0,0,1,191.781-1581.056Zm1.217-3.155a4.714,4.714,0,0,1,3.446-1.5,4.678,4.678,0,0,1,1.8.357l-.69,1.662a2.879,2.879,0,0,0-1.11-.22,2.865,2.865,0,0,0-2.126.929Zm-23-2.779a17.715,17.715,0,0,1,3.834-10.969l1.409,1.12a15.909,15.909,0,0,0-3.443,9.85c0,.443.018.886.055,1.318l-1.794.15C170.021-1586,170-1586.5,170-1586.991Zm25.876.1-.171-1.792a7.823,7.823,0,0,1,1.508,0l-.176,1.792A6.037,6.037,0,0,0,195.876-1586.891Zm-20.819-12.451,1.658-1.658,1.273,1.273-1.658,1.658Z"
                  transform="translate(-163.583 1607.362)" style="fill: var(--blue-color)"/>
        </g>
    </symbol>
    <symbol id="urban_fabric">
        <g id="" aria-placeholder="Urban fabric" transform="translate(-0.2 -2)">
            <path id="Union_31" aria-placeholder="Union 31"
                  d="M397.269-1557.161v-1.6h4.344l-.17-.321,13.218-6.99v-3.206l-17.412,9.842-.788-1.393,18.2-10.286v-3.649l-17.4,10.286-.814-1.378,5.9-3.487-5.814-2.554.643-1.465,6.867,3.017,3.352-1.981-9.994-3.732.56-1.5,11.2,4.185,5.254-3.105-17.8-5.392.259-.855-.475-.7,10.06-6.809h-4.574l-4.584,3.156-.907-1.318,2.67-1.839H389v-1.6h12.4l.026-.018.012.018h7.4l.013-.009.006.009h5.785a1.621,1.621,0,0,1,1.627,1.612v19.746H416.1l.026.046h.132v.234l.007.013-.007,0v11.4a1.629,1.629,0,0,1-1.627,1.627Zm17.366-1.6a.027.027,0,0,0,.027-.027v-5.474l-10.4,5.5Zm.027-19.318v-.391l-.33.291Zm-2.13-.645,2.13-1.88v-2.777l-5.26,3.708Zm-5.073-1.537,7.2-5.077v-3.3l-10.942,7.244ZM401.731-1582l12.45-8.242h-4.859l-10.759,7.282Zm18.693-.312v-1.6h3.307v1.6Zm-3.533-10.982,2.64-2.641,1.131,1.131-2.64,2.641Zm-9.671-2.4V-1599h1.6v3.308Z"
                  transform="translate(-379.731 1601)" style="fill: var(--blue-color)"/>
            <path id="Union_30" aria-placeholder="Union 30"
                  d="M391.992-1560.122a6.97,6.97,0,0,1-2.005-.9,1.982,1.982,0,0,1-.987-1.618v-33.077a1.981,1.981,0,0,1,.987-1.618,6.95,6.95,0,0,1,2.005-.9,22.03,22.03,0,0,1,6.077-.76,22.03,22.03,0,0,1,6.077.76,6.939,6.939,0,0,1,2.005.9,1.981,1.981,0,0,1,.987,1.618v33.077a1.982,1.982,0,0,1-.987,1.618,6.971,6.971,0,0,1-2.005.9,22.025,22.025,0,0,1-6.077.76A22.025,22.025,0,0,1,391.992-1560.122Zm6.077-.84a20.9,20.9,0,0,0,5.446-.643c1.579-.445,2-.931,2.023-1.041v-31.091a8.631,8.631,0,0,1-1.392.538,22.03,22.03,0,0,1-6.077.76q-.43,0-.854-.013v3.347h-1.6v-3.442a18.679,18.679,0,0,1-3.623-.653,8.627,8.627,0,0,1-1.392-.538v31.091c.028.111.445.6,2.022,1.041a17.3,17.3,0,0,0,2.993.529v-3.22h1.6v3.321Q397.638-1560.962,398.069-1560.962Zm-5.446-35.795c-1.561.44-1.985.92-2.022,1.038.037.118.462.6,2.022,1.038a20.942,20.942,0,0,0,5.446.643,20.954,20.954,0,0,0,5.447-.643c1.56-.44,1.984-.92,2.021-1.038-.037-.118-.462-.6-2.021-1.038a20.914,20.914,0,0,0-5.447-.644A20.9,20.9,0,0,0,392.623-1596.757Zm2.993,30.807v-4.135h1.6v4.135Zm0-5.789v-4.135h1.6v4.135Zm0-5.789v-4.135h1.6v4.135Zm0-5.788v-4.135h1.6v4.135Z"
                  transform="translate(-388.8 1608.161)" style="fill: var(--green-color)"/>
        </g>
    </symbol>
    <symbol id="water_and_the_environment">
        <g id="" aria-placeholder="Water and the environment" transform="translate(-2 -1.93)">
            <path id="Union_9" aria-placeholder="Union 9"
                  d="M719-1518.369c0-6.087,7.187-12.625,7.492-12.9l.6-.542.6.542c.306.275,7.493,6.814,7.493,12.9a8.1,8.1,0,0,1-8.1,8.1A8.1,8.1,0,0,1,719-1518.369Zm1.8,0a6.3,6.3,0,0,0,6.295,6.3,6.3,6.3,0,0,0,6.3-6.3c0-2.72-1.855-5.7-3.411-7.726a33.083,33.083,0,0,0-2.884-3.26C725.416-1527.689,720.8-1522.714,720.8-1518.369Zm7.569,3.3a3.44,3.44,0,0,0,.858-.507l1.131,1.4a5.243,5.243,0,0,1-1.309.774Zm1.752-1.611a3.423,3.423,0,0,0,.4-1.6,6.922,6.922,0,0,0-.906-3.02l1.6-.822a8.642,8.642,0,0,1,1.1,3.842,5.218,5.218,0,0,1-.607,2.443Zm-7.024-5.86a25.2,25.2,0,0,1,2.958-4.182l1.365,1.173a23.456,23.456,0,0,0-2.741,3.867Z"
                  transform="translate(-698.875 1534.093)" style="fill: var(--green-color)"/>
            <path id="Union_8" aria-placeholder="Union 8"
                  d="M748.487-1492.226l.331-.293.506-.448,1.193,1.347-.507.449-.329.292Zm-13.684-2.631c-1.812-.889-3.685-1.808-4.584-1.808a10.36,10.36,0,0,0-3.169.995,2.342,2.342,0,0,1-2.294,1.883H719v-1.8h5.755a.539.539,0,0,0,.539-.539V-1506.2a.54.54,0,0,0-.539-.539H719v-1.8h5.755a2.342,2.342,0,0,1,2.174,1.475l.595-.3c2.648-1.351,3.856-1.966,6.037-1.966,2.972,0,6.071,1.624,9.068,3.194,1.429.749,2.779,1.456,4.1,1.993a3.3,3.3,0,0,1,2.019,2.161l6.11-5.108a3.054,3.054,0,0,1,1.977-.725,3.061,3.061,0,0,1,3.058,3.058,2.967,2.967,0,0,1-.967,2.231c-6.034,5.344-7.156,6.368-8.057,7.191-.555.507-.994.907-2.432,2.182a5.527,5.527,0,0,1-3.835,1.528C741.388-1491.628,737.737-1493.419,734.8-1494.857Zm.793-1.616c2.767,1.356,6.209,3.046,9.013,3.046a3.731,3.731,0,0,0,2.641-1.076c1.428-1.265,1.862-1.661,2.411-2.164.906-.826,2.033-1.856,8.077-7.209a1.17,1.17,0,0,0,.361-.884,1.259,1.259,0,0,0-1.258-1.258,1.253,1.253,0,0,0-.81.3l-7.853,6.4a3.055,3.055,0,0,1-2.386,1.147,3.057,3.057,0,0,1-.964-.156l-7.036-2.345.569-1.708,7.036,2.345a1.242,1.242,0,0,0,.4.064,1.261,1.261,0,0,0,1.259-1.259,1.458,1.458,0,0,0-.994-1.238c-1.408-.572-2.859-1.332-4.263-2.068-2.8-1.469-5.7-2.988-8.233-2.988-1.749,0-2.694.482-5.219,1.769-.375.192-.792.4-1.247.633v7.5a9.013,9.013,0,0,1,3.125-.837C731.535-1498.465,733.327-1497.586,735.6-1496.473Zm15.963,1.615c.438-.389.963-.865,1.626-1.468,1.073-.975,2.407-2.187,4.177-3.755l1.193,1.347c-1.761,1.561-3.091,2.768-4.16,3.74-.668.607-1.2,1.087-1.643,1.483Zm-24.679-23.784,3.37-1.034.528,1.721-3.37,1.034Zm-.088-6.719.753-1.635,4.025,1.855-.753,1.635Zm6.5-5.932,1.724-.518,1.012,3.372-1.724.517Z"
                  transform="translate(-717 1533.741)" style="fill: var(--blue-color)"/>
        </g>
    </symbol>
</svg>
