<svg xmlns="http://www.w3.org/2000/svg" xlink="http://www.w3.org/1999/xlink" width="0" height="0" style="display:none;">

    <symbol id="conference-ico">
        <g id="Population_and_demographics" data-name="Population and demographics" transform="translate(0 0.75)">
            <path id="blue"
                  d="M855.357-1069.619h0Zm-27.357,0h0Zm37.119-9.711a2.093,2.093,0,0,1,2.093-2.093,2.092,2.092,0,0,1,2.092,2.093,2.092,2.092,0,0,1-2.092,2.092A2.092,2.092,0,0,1,865.119-1079.329Zm-8.406,0a2.092,2.092,0,0,1,2.092-2.093,2.092,2.092,0,0,1,2.092,2.093,2.092,2.092,0,0,1-2.092,2.092A2.092,2.092,0,0,1,856.713-1079.329Zm-18.908,0a2.092,2.092,0,0,1,2.092-2.093,2.092,2.092,0,0,1,2.092,2.093,2.092,2.092,0,0,1-2.092,2.092A2.092,2.092,0,0,1,837.8-1079.329Zm-8.411,0a2.093,2.093,0,0,1,2.093-2.093,2.092,2.092,0,0,1,2.092,2.093,2.092,2.092,0,0,1-2.092,2.092A2.092,2.092,0,0,1,829.394-1079.329Zm30.844-5.579A2.092,2.092,0,0,1,862.33-1087a2.092,2.092,0,0,1,2.092,2.092,2.093,2.093,0,0,1-2.092,2.092A2.092,2.092,0,0,1,860.238-1084.909Zm-8.428,0A2.092,2.092,0,0,1,853.9-1087a2.092,2.092,0,0,1,2.092,2.092,2.092,2.092,0,0,1-2.092,2.092A2.092,2.092,0,0,1,851.81-1084.909Zm-9.8,0A2.092,2.092,0,0,1,844.1-1087a2.092,2.092,0,0,1,2.093,2.092,2.093,2.093,0,0,1-2.093,2.092A2.092,2.092,0,0,1,842.006-1084.909Zm-8.428,0A2.092,2.092,0,0,1,835.67-1087a2.092,2.092,0,0,1,2.092,2.092,2.092,2.092,0,0,1-2.092,2.092A2.092,2.092,0,0,1,833.578-1084.909Z"
                  transform="translate(-828 1087)" fill="none"  stroke-miterlimit="10"
                  stroke-width="1.5" style="stroke: var(--blue-color)" />

            <path id="green"
                  d="M840.61-1059.331V-1070.1l-5.727,1.629a2.113,2.113,0,0,1-.579.08,2.1,2.1,0,0,1-1.164-.35l-4.2-2.789a2.087,2.087,0,0,1-.937-1.741,2.1,2.1,0,0,1,2.1-2.092,2.11,2.11,0,0,1,1.166.349l3.395,2.254,5.854-1.665a6.359,6.359,0,0,1,1.732-.241h6.531a6.365,6.365,0,0,1,1.732.241l5.854,1.665,3.395-2.254a2.1,2.1,0,0,1,1.165-.349,2.1,2.1,0,0,1,2.1,2.092,2.087,2.087,0,0,1-.937,1.741l-4.2,2.789a2.1,2.1,0,0,1-1.164.35,2.113,2.113,0,0,1-.579-.08l-5.727-1.629v10.774Zm.72-22.789c0-2.7,1.873-4.881,4.184-4.881s4.183,2.185,4.183,4.881-1.873,4.882-4.183,4.882S841.33-1079.423,841.33-1082.12Z"
                  transform="translate(-824.514 1097.331)" fill="none"  stroke-miterlimit="10"
                  stroke-width="1.5" style="stroke: var(--green-color)"/>
        </g>
    </symbol>


</svg>
