<svg xmlns="http://www.w3.org/2000/svg" width="40.939" height="41.172" viewBox="0 0 40.939 41.172">
  <g id="smokefromfire" transform="translate(1 1)">
    <path id="Path_242" data-name="Path 242" d="M14.327,20.96q-.169.014-.34.014a3.987,3.987,0,1,1,0-7.974" transform="translate(-6.81 -7.418)" fill="none" stroke="#60cb5f" stroke-miterlimit="10" stroke-width="2"/>
    <path id="Path_243" data-name="Path 243" d="M16.227,14.865a3.987,3.987,0,1,1,6.415-4.473" transform="translate(-7.922 -6.405)" fill="none" stroke="#60cb5f" stroke-miterlimit="10" stroke-width="2"/>
    <path id="Path_244" data-name="Path 244" d="M25.41,18.47a6.4,6.4,0,0,1-.777-1.344" transform="translate(-9.944 -8.231)" fill="none" stroke="#60cb5f" stroke-miterlimit="10" stroke-width="2"/>
    <path id="Path_245" data-name="Path 245" d="M38.379,8.732a4.786,4.786,0,0,1,8.187,4.674" transform="translate(-13 -6.203)" fill="none" stroke="#60cb5f" stroke-miterlimit="10" stroke-width="2"/>
    <path id="Path_246" data-name="Path 246" d="M43.689,16.457a4.784,4.784,0,1,1,3.438,8.112" transform="translate(-14.076 -7.799)" fill="none" stroke="#60cb5f" stroke-miterlimit="10" stroke-width="2"/>
    <path id="Path_247" data-name="Path 247" d="M42,20.621a4.794,4.794,0,0,1,.238-1.494" transform="translate(-13.615 -8.632)" fill="none" stroke="#60cb5f" stroke-miterlimit="10" stroke-width="2"/>
    <path id="Path_248" data-name="Path 248" d="M41.987,23A3.987,3.987,0,0,1,38,26.987" transform="translate(-12.799 -9.406)" fill="none" stroke="#60cb5f" stroke-miterlimit="10" stroke-width="2"/>
    <path id="Path_249" data-name="Path 249" d="M50.634,30.261a8.011,8.011,0,0,1-4.5.45" transform="translate(-14.571 -10.865)" fill="none" stroke="#60cb5f" stroke-miterlimit="10" stroke-width="2"/>
    <path id="Path_250" data-name="Path 250" d="M55.374,27.408a8.034,8.034,0,0,1-1.193,1.159" transform="translate(-16.202 -10.293)" fill="none" stroke="#60cb5f" stroke-miterlimit="10" stroke-width="2"/>
    <path id="Path_256" data-name="Path 256" d="M19.947,27.857A3.987,3.987,0,1,1,18.987,20" transform="translate(-7.915 -8.801)" fill="none" stroke="#60cb5f" stroke-miterlimit="10" stroke-width="2"/>
    <path id="Path_257" data-name="Path 257" d="M24.041,13.109a6.5,6.5,0,0,1-.041-.73A6.38,6.38,0,0,1,36.508,10.6" transform="translate(-9.88 -6)" fill="none" stroke="#60cb5f" stroke-miterlimit="10" stroke-width="2"/>
    <g id="Group_2563" data-name="Group 2563" transform="translate(0 2.863)">
      <path id="Path_251" data-name="Path 251" d="M10.177,10.236a7.2,7.2,0,0,1,1.285-.646" transform="translate(-6.846 -9.59)" fill="none" stroke="#68bfca" stroke-miterlimit="10" stroke-width="2"/>
      <path id="Path_252" data-name="Path 252" d="M6,16.8a7.144,7.144,0,0,1,1.762-4.71" transform="translate(-6 -10.097)" fill="none" stroke="#68bfca" stroke-miterlimit="10" stroke-width="2"/>
      <path id="Path_253" data-name="Path 253" d="M31.679,37.826a14.978,14.978,0,0,0,1.066-6.257c0-4.784-3.987-9.569-7.974-9.569,0,5.582-8.771,6.379-8.771,12.758a8.308,8.308,0,0,0,1.985,5.372" transform="translate(-8.18 -12.044)" fill="none" stroke="#68bfca" stroke-miterlimit="10" stroke-width="2"/>
      <path id="Path_254" data-name="Path 254" d="M30.443,37.975c2.055-1.621,4.285-2.19,7.655-2.19,0,4.153.8,3.987.8,7.176s-4.784,7.176-7.974,7.176H17.366C11.784,50.137,7,46.449,7,41.366A23.962,23.962,0,0,1,9.392,31c2.11,2.426,4.4,2.794,4.812,4.97" transform="translate(-6.203 -13.828)" fill="none" stroke="#68bfca" stroke-miterlimit="10" stroke-width="2"/>
      <path id="Path_255" data-name="Path 255" d="M20.784,50.745c-2.392-.8-3.987-3.19-4.784-5.582a16.222,16.222,0,0,0,3.987.8,7.331,7.331,0,0,0,2.219-.411,10.291,10.291,0,0,1-.624-3.575c0-3.987,2.392-3.987,3.987-7.974,2.392,2.392,3.19,3.987,3.19,6.379a14.543,14.543,0,0,1-1.3,4.92,7.936,7.936,0,0,0,2.891.662c1.595,0,3.987-1.595,3.987-1.595,0,3.115-.822,5.208-4.784,6.379" transform="translate(-8.191 -14.436)" fill="none" stroke="#68bfca" stroke-miterlimit="10" stroke-width="2"/>
    </g>
  </g>
</svg>
