<svg xmlns="http://www.w3.org/2000/svg" width="45.447" height="41.798" viewBox="0 0 45.447 41.798">
  <g id="Urban_enhancement" data-name="Urban enhancement" transform="translate(-0.743 -3.101)">
    <path id="Union_46" data-name="Union 46" d="M9436.488-1575.943l0,0-15.549-2.948a1.434,1.434,0,0,0-.282-.029,1.511,1.511,0,0,0-1.074.446l-2.016,2.016-1.271-1.273,2.013-2.016a3.306,3.306,0,0,1,2.348-.972,3.4,3.4,0,0,1,.616.059l15.544,2.948a1.493,1.493,0,0,0,.264.024,1.375,1.375,0,0,0,1.343-1.085,7.752,7.752,0,0,1-3.5-2.552l-3.15-.906a3.2,3.2,0,0,1-2.3-3.057l0-2.407a3.929,3.929,0,0,1,1.375-2.995l4.178-3.581,3.115,1.075a7.677,7.677,0,0,1,2.895-.563,7.675,7.675,0,0,1,3.384.782,1.373,1.373,0,0,0,.1-.528,1.27,1.27,0,0,0-.693-1.2l-8.221-3.27a3.153,3.153,0,0,0-1.174-.225,1.746,1.746,0,0,0-.78.183l-16.4,8.368-.818-1.6,16.41-8.375a3.557,3.557,0,0,1,1.584-.372,4.921,4.921,0,0,1,1.84.353l8.222,3.27a3.058,3.058,0,0,1,1.826,2.869,3.173,3.173,0,0,1-.384,1.509,7.7,7.7,0,0,1,2.813,5.956,7.728,7.728,0,0,1-7.718,7.719,7.741,7.741,0,0,1-.85-.047,3.178,3.178,0,0,1-3.1,2.48A3.333,3.333,0,0,1,9436.488-1575.943Zm-1.385-10.1a5.925,5.925,0,0,0,5.919,5.919,5.926,5.926,0,0,0,5.918-5.919,5.924,5.924,0,0,0-5.918-5.919A5.923,5.923,0,0,0,9435.1-1586.042Zm-3.1-3.282a2.14,2.14,0,0,0-.746,1.624l0,2.407a1.384,1.384,0,0,0,1,1.328l1.455.419a7.682,7.682,0,0,1-.414-2.5,7.705,7.705,0,0,1,2.8-5.948l-.705-.244Zm8.11,8.288v-1.282a2.307,2.307,0,0,1-2.1-2.294h1.8a.5.5,0,0,0,.5.5h1.4a.5.5,0,0,0,.5-.5.5.5,0,0,0-.5-.5h-1.4a2.3,2.3,0,0,1-2.3-2.3,2.306,2.306,0,0,1,2.1-2.294v-1.266h1.8v1.266a2.3,2.3,0,0,1,2.1,2.294h-1.8a.5.5,0,0,0-.5-.5h-1.4a.5.5,0,0,0-.5.5.5.5,0,0,0,.5.5h1.4a2.3,2.3,0,0,1,2.3,2.3,2.306,2.306,0,0,1-2.1,2.294v1.282Z" transform="translate(-9415.549 1604.615)" fill="#60cb5f"/>
    <path id="Union_47" data-name="Union 47" d="M9416.29-1565.161a6.97,6.97,0,0,1,6.963-6.96,6.971,6.971,0,0,1,6.782,5.391l9.265-.928a6.973,6.973,0,0,1,6.96-6.737q.313,0,.623.028l2.949-12.169a6.973,6.973,0,0,1-4.475-6.5,6.92,6.92,0,0,1,1.272-4.012l1.47,1.037a5.138,5.138,0,0,0-.94,2.975,5.166,5.166,0,0,0,5.161,5.161,5.168,5.168,0,0,0,5.161-5.161,5.168,5.168,0,0,0-5.161-5.161,5.252,5.252,0,0,0-.572.031l-.192-1.79a7.646,7.646,0,0,1,.765-.04,6.969,6.969,0,0,1,6.96,6.96,6.969,6.969,0,0,1-6.96,6.96,7,7,0,0,1-.737-.039l-2.943,12.14a7,7,0,0,1,1.632.854l-1.04,1.469a5.131,5.131,0,0,0-2.972-.94,5.166,5.166,0,0,0-5.161,5.161,5.168,5.168,0,0,0,5.161,5.161,5.169,5.169,0,0,0,5.16-5.161c0-.192-.012-.382-.03-.567l1.787-.2a6.638,6.638,0,0,1,.043.767,6.969,6.969,0,0,1-6.96,6.96,6.974,6.974,0,0,1-6.785-5.393l-9.265.926a6.893,6.893,0,0,1-1.269,3.791l-1.47-1.037a5.125,5.125,0,0,0,.942-2.975,5.166,5.166,0,0,0-5.161-5.161,5.167,5.167,0,0,0-5.161,5.161,5.167,5.167,0,0,0,5.161,5.161,5.23,5.23,0,0,0,.57-.031l.192,1.79a7.608,7.608,0,0,1-.763.04A6.97,6.97,0,0,1,9416.29-1565.161Zm9.1,4.731a5.314,5.314,0,0,0,1.012-.591l1.072,1.446a7.1,7.1,0,0,1-1.36.793Zm25-10.253,1.443-1.075a6.917,6.917,0,0,1,.793,1.363l-1.649.722A5.265,5.265,0,0,0,9450.4-1570.683Zm-2.291-27.942a7.1,7.1,0,0,1,1.36-.793l.727,1.648a5.329,5.329,0,0,0-1.014.589Z" transform="translate(-9413.09 1603.1)" fill="#68bfca"/>
  </g>
</svg>
