<svg xmlns="http://www.w3.org/2000/svg" width="48.803" height="40.8" viewBox="0 0 48.803 40.8">
  <g id="Urban_strategy" data-name="Urban strategy" transform="translate(-1.099 -6.101)">
    <path id="Union_45" data-name="Union 45" d="M9568.339-1568.922a4.237,4.237,0,0,1,3.331-4.134v-.76h-7.422v-1.8h9.223v2.56a4.237,4.237,0,0,1,3.331,4.134,4.237,4.237,0,0,1-4.23,4.23A4.237,4.237,0,0,1,9568.339-1568.922Zm1.8,0a2.433,2.433,0,0,0,2.43,2.43,2.432,2.432,0,0,0,2.428-2.43,2.433,2.433,0,0,0-2.428-2.432A2.433,2.433,0,0,0,9570.142-1568.922Zm-39.643,0a4.234,4.234,0,0,1,4.229-4.23,4.2,4.2,0,0,1,1.817.411l2.877-2.877h2.985v1.8h-2.24l-2.19,2.19a4.21,4.21,0,0,1,.981,2.706,4.236,4.236,0,0,1-4.23,4.23A4.236,4.236,0,0,1,9530.5-1568.922Zm1.8,0a2.433,2.433,0,0,0,2.43,2.43,2.435,2.435,0,0,0,2.431-2.43,2.435,2.435,0,0,0-2.431-2.432A2.433,2.433,0,0,0,9532.3-1568.922Zm35.3-12.356h-4.562v-1.8h4.562a4.238,4.238,0,0,1,4.134-3.329,4.235,4.235,0,0,1,4.232,4.23,4.237,4.237,0,0,1-4.232,4.23A4.24,4.24,0,0,1,9567.6-1581.278Zm1.7-.9a2.434,2.434,0,0,0,2.43,2.43,2.433,2.433,0,0,0,2.43-2.43,2.431,2.431,0,0,0-2.43-2.43A2.432,2.432,0,0,0,9569.308-1582.177Zm-41.309,0a4.235,4.235,0,0,1,4.23-4.23,4.238,4.238,0,0,1,4.136,3.329h1.692v1.8h-1.692a4.24,4.24,0,0,1-4.136,3.331A4.236,4.236,0,0,1,9528-1582.177Zm1.8,0a2.432,2.432,0,0,0,2.428,2.43,2.433,2.433,0,0,0,2.43-2.43,2.431,2.431,0,0,0-2.43-2.43A2.431,2.431,0,0,0,9529.8-1582.177Zm10.013.9v-1.8h1.666v1.8Zm21.9-5.8v-1.8h2.91l1.842-1.842a4.2,4.2,0,0,1-.628-2.215,4.234,4.234,0,0,1,4.229-4.23,4.235,4.235,0,0,1,4.23,4.23,4.236,4.236,0,0,1-4.23,4.23,4.2,4.2,0,0,1-2.354-.718l-2.345,2.345Zm5.924-5.857a2.434,2.434,0,0,0,2.43,2.43,2.433,2.433,0,0,0,2.431-2.43,2.431,2.431,0,0,0-2.431-2.43A2.433,2.433,0,0,0,9567.642-1592.937Zm-31.235,5.857v-2.541a4.237,4.237,0,0,1-3.41-4.15,4.236,4.236,0,0,1,4.23-4.23,4.236,4.236,0,0,1,4.229,4.23,4.237,4.237,0,0,1-3.249,4.115v.776h6.664v1.8Zm-1.61-6.691a2.433,2.433,0,0,0,2.431,2.432,2.435,2.435,0,0,0,2.43-2.432,2.434,2.434,0,0,0-2.43-2.43A2.433,2.433,0,0,0,9534.8-1593.771Z" transform="translate(-9526.9 1608.263)" fill="#68bfca"/>
    <path id="Union_44" data-name="Union 44" d="M9565.841-1557.2v-1.8h1.667v1.8Zm-34.511,0v-1.8h2.43v-.766a4.237,4.237,0,0,1,2.729-3.941,8.869,8.869,0,0,1-.975-4.384c0-5.977,2.354-15.237,3.2-18.349a2.568,2.568,0,0,1-1.5-2.334v-7.494a1.734,1.734,0,0,1,1.733-1.731h3.4v5.062h-1.8v-3.263h-1.529v4.86h16.652v-4.86h-1.53v3.263h-1.8V-1598h3.4a1.734,1.734,0,0,1,1.734,1.731v7.494a2.566,2.566,0,0,1-1.4,2.281c.827,3.058,3.211,12.391,3.211,18.4a8.611,8.611,0,0,1-1.083,4.387,4.237,4.237,0,0,1,2.72,3.937v.766h3.266v1.8Zm27.78-1.8v-.766a2.458,2.458,0,0,0-2.48-2.43h-18.587a2.46,2.46,0,0,0-2.482,2.43v.766Zm-2.914-4.994a6.417,6.417,0,0,0,1.276-4.1c0-5.846-2.449-15.349-3.2-18.119H9549.9v-1.8h4.994a.766.766,0,0,0,.767-.764v-.766h-16.652v.766a.766.766,0,0,0,.767.764h4.994v1.8h-4.254c-.749,2.77-3.2,12.273-3.2,18.119a6.232,6.232,0,0,0,1.155,4.1Zm-28.2,6.8v-1.8h1.667v1.8Zm20.185-8.3v-1.8h1.663v1.8Zm-3.364,0v-1.8h1.664v1.8Zm-3.364,0v-1.8h1.664v1.8Zm5.05-20.746v-1.8h1.661v1.8Zm1.594-6.694v-3.263h-1.529v3.263h-1.8V-1598h5.132v5.062Z" transform="translate(-9521.005 1604.1)" fill="#60cb5f"/>
  </g>
</svg>
