<svg id="briefcase" xmlns="http://www.w3.org/2000/svg" width="42.704" height="41" viewBox="0 0 42.704 41">
  <path id="Subtraction_1" data-name="Subtraction 1" d="M32.587,30.407H5.428A5.434,5.434,0,0,1,0,24.979V5.428A5.432,5.432,0,0,1,2.839.658L5.156,2.975a2.462,2.462,0,0,0-2.2,2.453V24.979a2.47,2.47,0,0,0,2.467,2.467h24.2L32.586,30.4Zm9.124-6.228,0,0L38.75,21.218V5.428A2.47,2.47,0,0,0,36.284,2.96H20.492L17.532,0H36.284a5.434,5.434,0,0,1,5.428,5.428V24.179Z" transform="translate(0 8.153)" fill="#b3f4fc"/>
  <path id="Subtraction_2" data-name="Subtraction 2" d="M16.949,37.566a1.482,1.482,0,0,1-1.48-1.48v-4.2l2.96,2.96v1.237A1.482,1.482,0,0,1,16.949,37.566Zm-15.468,0A1.482,1.482,0,0,1,0,36.086V16.42l2.96,2.96V36.086A1.482,1.482,0,0,1,1.481,37.566ZM18.429,19.5l0,0-2.958-2.958V5.325A2.379,2.379,0,0,0,13.082,2.96H5.348a2.379,2.379,0,0,0-2.14,1.316l-2.14-2.14A5.315,5.315,0,0,1,5.348,0h7.734a5.343,5.343,0,0,1,5.348,5.325V19.5Z" transform="translate(11.441 0.993)" fill="#b3f4fc"/>
  <path id="Line_18" data-name="Line 18" d="M37.552,39.5a1.744,1.744,0,0,1-1.241-.516l-37.3-37.5A1.75,1.75,0,0,1,1.49-.984l37.3,37.5a1.75,1.75,0,0,1-1.24,2.984Z" transform="translate(3.402 1.5)" fill="#b3f4fc"/>
</svg>
