<svg id="chart" xmlns="http://www.w3.org/2000/svg" width="36.144" height="36.144" viewBox="0 0 36.144 36.144">
  <path id="Path_5" data-name="Path 5" d="M37.105,12.5c0-4.617.345-5.882-1.018-6.44-.427-.131-.3-.131-5.547-.131a1.643,1.643,0,0,0,0,3.286h.968L20.694,20.041l-5.4-5.422a1.64,1.64,0,0,0-2.33,0L4.282,23.327V2.643A1.641,1.641,0,1,0,1,2.643V35.5a1.642,1.642,0,0,0,1.641,1.643H35.464a1.643,1.643,0,0,0,0-3.286H4.282v-5.9L14.129,18.1C20.037,24,19.791,24,20.694,24s.279.394,13.129-12.47V12.5a1.641,1.641,0,1,0,3.282,0Z" transform="translate(-1 -1)" fill="#b3f4fc"/>
</svg>
