<svg xmlns="http://www.w3.org/2000/svg" width="71.504" height="75" viewBox="0 0 71.504 75">
  <g id="business_agreement" transform="translate(-1.645)">
    <g id="Group_3181" data-name="Group 3181" transform="translate(2.335 30.459)">
      <path id="Path_34295" data-name="Path 34295" d="M41.975,52.842l5.96-5.917a22.419,22.419,0,0,1,6.688-4.576l7.229-3.213" transform="translate(8.149 -20.448)" fill="none" stroke="#68bfca" stroke-miterlimit="10" stroke-width="4"/>
      <path id="Path_34296" data-name="Path 34296" d="M40.7,55.322c0,3.142-4.661,5.058-8.851,5.058S23,57.2,23,54.058C23,49.869,27.661,49,31.851,49S40.7,52.18,40.7,55.322Z" transform="translate(3.132 -17.839)" fill="none" stroke="#68bfca" stroke-miterlimit="10" stroke-width="4"/>
      <path id="Path_34297" data-name="Path 34297" d="M29.2,59.161A24.633,24.633,0,0,1,21.717,52.9c-2.66-3.439-5.875-8.8-9.543-11.138-2.49-1.584-5.861-2.172-9.839-3.635" transform="translate(-2.335 -20.715)" fill="none" stroke="#68bfca" stroke-miterlimit="10" stroke-width="4"/>
      <path id="Path_34298" data-name="Path 34298" d="M31.592,35.585c-.431-.292-.83-.553-1.185-.775a9.247,9.247,0,0,0-3.275-.789C20.04,34.021,16.547,32.4,12.469,29c-1.486-1.238-4.038-3.639-5.092-4.638" transform="translate(-1.001 -24.356)" fill="none" stroke="#68bfca" stroke-miterlimit="10" stroke-width="4"/>
      <path id="Path_34299" data-name="Path 34299" d="M37.7,60.631s4.878-3.585,7.06-7.172a6.1,6.1,0,0,0,1.3-3.13,4.417,4.417,0,0,0-1.584-3.394S37.582,41.418,31.452,36.8" transform="translate(5.366 -21.065)" fill="none" stroke="#68bfca" stroke-miterlimit="10" stroke-width="4"/>
      <path id="Path_34300" data-name="Path 34300" d="M40.438,39.079H33.933l-2.744,5.488a3.794,3.794,0,0,1-6.79-3.389l3.793-7.587a3.8,3.8,0,0,1,3.4-2.1H42.172a17.068,17.068,0,0,1,8.382,2.529l12.08-9.664" transform="translate(3.396 -24.357)" fill="none" stroke="#68bfca" stroke-miterlimit="10" stroke-width="4"/>
    </g>
    <path id="Path_34301" data-name="Path 34301" d="M5,23.38V14.529A2.528,2.528,0,0,1,7.529,12H17.645a2.528,2.528,0,0,1,2.529,2.529v11.38" transform="translate(0.705 2.687)" fill="none" stroke="#60cb5f" stroke-miterlimit="10" stroke-width="4"/>
    <path id="Path_34302" data-name="Path 34302" d="M23,32.025v-21.5A2.528,2.528,0,0,1,25.529,8H35.645a2.528,2.528,0,0,1,2.529,2.529v21.5" transform="translate(5.466 1.587)" fill="none" stroke="#60cb5f" stroke-miterlimit="10" stroke-width="4"/>
    <path id="Path_34303" data-name="Path 34303" d="M41,28.554V4.529A2.528,2.528,0,0,1,43.529,2H53.645a2.528,2.528,0,0,1,2.529,2.529v21.5" transform="translate(10.226)" fill="none" stroke="#60cb5f" stroke-miterlimit="10" stroke-width="4"/>
  </g>
</svg>
