<svg xmlns="http://www.w3.org/2000/svg" width="100.233" height="100" viewBox="0 0 100.233 100">
  <g id="coding-process" transform="translate(-0.768 -2)">
    <g id="Group_3192" data-name="Group 3192">
      <path id="Path_34386" data-name="Path 34386" d="M50,32V65.589" transform="translate(38.625 23.804)" fill="none" stroke="#68bfca" stroke-miterlimit="10" stroke-width="4"/>
      <path id="Path_34387" data-name="Path 34387" d="M35.495,48.75l9.794-8.169L35.4,32.336" transform="translate(27.1 23.804)" fill="none" stroke="#68bfca" stroke-miterlimit="10" stroke-width="4"/>
      <path id="Path_34388" data-name="Path 34388" d="M24.877,48.854,15,40.625l10.015-8.346" transform="translate(11.029 23.76)" fill="none" stroke="#68bfca" stroke-miterlimit="10" stroke-width="4"/>
      <path id="Path_34390" data-name="Path 34390" d="M23.563,58.217,39.2,29.454" transform="translate(17.805 21.626)" fill="none" stroke="#68bfca" stroke-miterlimit="10" stroke-width="4"/>
      <path id="Path_34395" data-name="Path 34395" d="M10.536,2H7V5.536h3.536Z" transform="translate(4.607)" fill="#68bfca"/>
      <path id="Path_34396" data-name="Path 34396" d="M14.536,4H11V7.536h3.536Z" transform="translate(7.865 1.536)" fill="#68bfca"/>
      <path id="Path_34397" data-name="Path 34397" d="M4.536,8H1v3.536H4.536Z" transform="translate(0 4.607)" fill="#68bfca"/>
      <path id="Path_34398" data-name="Path 34398" d="M16.536,8H13v3.536h3.536Z" transform="translate(9.438 4.607)" fill="#68bfca"/>
      <path id="Path_34399" data-name="Path 34399" d="M10.536,14H7v3.536h3.536Z" transform="translate(4.607 9.388)" fill="#68bfca"/>
      <path id="Path_34400" data-name="Path 34400" d="M6.536,12H3v3.536H6.536Z" transform="translate(1.537 7.823)" fill="#68bfca"/>
      <path id="Path_34401" data-name="Path 34401" d="M14.536,12H11v3.536h3.536Z" transform="translate(7.865 7.823)" fill="#68bfca"/>
      <path id="Path_34402" data-name="Path 34402" d="M6.536,4H3V7.536H6.536Z" transform="translate(1.537 1.536)" fill="#68bfca"/>
      <path id="Path_34403" data-name="Path 34403" d="M56.536,36H53v3.536h3.536Z" transform="translate(40.93 26.6)" fill="#68bfca"/>
      <path id="Path_34404" data-name="Path 34404" d="M58.536,40H55v3.536h3.536Z" transform="translate(42.465 29.729)" fill="#68bfca"/>
      <path id="Path_34405" data-name="Path 34405" d="M56.536,44H53v3.536h3.536Z" transform="translate(40.93 32.859)" fill="#68bfca"/>
      <path id="Path_34406" data-name="Path 34406" d="M34.536,8H31v3.536h3.536Z" transform="translate(23.592 4.607)" fill="#68bfca"/>
      <path id="Path_34407" data-name="Path 34407" d="M38.536,10H35v3.536h3.536Z" transform="translate(26.738 6.143)" fill="#68bfca"/>
      <path id="Path_34408" data-name="Path 34408" d="M28.536,14H25v3.536h3.536Z" transform="translate(18.873 9.388)" fill="#68bfca"/>
      <path id="Path_34409" data-name="Path 34409" d="M30.536,10H27v3.536h3.536Z" transform="translate(20.447 6.143)" fill="#68bfca"/>
    </g>
    <g id="Group_3191" data-name="Group 3191">
      <path id="Path_34389" data-name="Path 34389" d="M87.78,61.607H9.148A7.11,7.11,0,0,1,2,54.536V51H94.929v3.536A7.11,7.11,0,0,1,87.78,61.607Z" transform="translate(0.768 38.393)" fill="none" stroke="#60cb5f" stroke-miterlimit="10" stroke-width="4"/>
      <path id="Path_34410" data-name="Path 34410" d="M66.115,19H11.3A5.3,5.3,0,0,0,6,24.3V75.57" transform="translate(3.84 13.823)" fill="none" stroke="#60cb5f" stroke-miterlimit="10" stroke-width="4"/>
      <path id="Path_34411" data-name="Path 34411" d="M6,19H60.813a5.3,5.3,0,0,1,5.3,5.3V75.57" transform="translate(22.516 13.823)" fill="none" stroke="#60cb5f" stroke-miterlimit="10" stroke-width="4"/>
    </g>
  </g>
</svg>
