<svg xmlns="http://www.w3.org/2000/svg" width="72" height="55" viewBox="0 0 72 55">
  <g id="idea" transform="translate(-18 0.5)">
    <path id="Path_34350" data-name="Path 34350" d="M13,10H24.376" transform="translate(5 11.348)" fill="none" stroke="#68bfca" stroke-miterlimit="10" stroke-width="3"/>
    <path id="Path_34351" data-name="Path 34351" d="M15.4,2.4l7.285,7.285" transform="translate(8.059 1.784)" fill="none" stroke="#68bfca" stroke-miterlimit="10" stroke-width="3"/>
    <path id="Path_34352" data-name="Path 34352" d="M15.4,21.684,22.684,14.4" transform="translate(8.059 16.863)" fill="none" stroke="#68bfca" stroke-miterlimit="10" stroke-width="3"/>
    <path id="Path_34354" data-name="Path 34354" d="M55.376,10H44" transform="translate(34.624 11.348)" fill="none" stroke="#68bfca" stroke-miterlimit="10" stroke-width="3"/>
    <path id="Path_34355" data-name="Path 34355" d="M50.684,2.4,43.4,9.684" transform="translate(33.858 1.784)" fill="none" stroke="#68bfca" stroke-miterlimit="10" stroke-width="3"/>
    <path id="Path_34356" data-name="Path 34356" d="M50.684,21.684,43.4,14.4" transform="translate(33.858 16.863)" fill="none" stroke="#68bfca" stroke-miterlimit="10" stroke-width="3"/>
    <path id="Path_34353" data-name="Path 34353" d="M31.183,27.335,41.651,16.867H28L38.468,6.4" transform="translate(19.175 6.756)" fill="none" stroke="#68bfca" stroke-miterlimit="10" stroke-width="3"/>
    <g id="Group_3188" data-name="Group 3188" transform="translate(33.524 1)">
      <path id="Path_34349" data-name="Path 34349" d="M27,20H38.376" transform="translate(-15.699 22.9)" fill="none" stroke="#60cb5f" stroke-miterlimit="10" stroke-width="3"/>
      <path id="Path_34369" data-name="Path 34369" d="M51.577,43.957v6.783A2.269,2.269,0,0,1,49.3,53H35.651a2.269,2.269,0,0,1-2.275-2.261V43.957s-.987-1.284-6.484-8.363A23.241,23.241,0,0,1,22,21.348a20.477,20.477,0,0,1,40.952,0,23.231,23.231,0,0,1-4.889,14.241c-5.294,6.819-6.486,8.367-6.486,8.367Z" transform="translate(-22 -1)" fill="none" stroke="#60cb5f" stroke-miterlimit="10" stroke-width="3"/>
    </g>
  </g>
</svg>
