<svg xmlns="http://www.w3.org/2000/svg" width="61.034" height="61.034" viewBox="0 0 61.034 61.034">
  <g id="msg_white" transform="translate(-22.5 0.534)">
    <path id="Path_34220" data-name="Path 34220" d="M55.618,28.085A11.42,11.42,0,1,1,40.28,12.747" transform="translate(6.73 7.905)" fill="none" stroke="#fff" stroke-miterlimit="10" stroke-width="3"/>
    <path id="Path_34221" data-name="Path 34221" d="M65.808,17.283a19.562,19.562,0,1,1-7.942-7.942" transform="translate(3.156 4.696)" fill="none" stroke="#fff" stroke-miterlimit="10" stroke-width="3"/>
    <path id="Path_34222" data-name="Path 34222" d="M78.078,19.037A28.164,28.164,0,1,1,63.333,4.291" transform="translate(0 0.631)" fill="none" stroke="#fff" stroke-miterlimit="10" stroke-width="3"/>
    <g id="Group_2710" data-name="Group 2710" transform="translate(49.409 1)">
      <path id="Path_34218" data-name="Path 34218" d="M44.707,18.634,53.341,10" transform="translate(-35.408 4.658)" fill="none" stroke="#fff" stroke-miterlimit="10" stroke-width="3"/>
      <path id="Path_34219" data-name="Path 34219" d="M58.156,7.525h5.367A1.155,1.155,0,0,1,64.34,9.5L58.634,15.2a1.63,1.63,0,0,1-1.153.478H50V8.2a1.627,1.627,0,0,1,.478-1.153l5.706-5.706a1.155,1.155,0,0,1,1.972.817Z" transform="translate(-32.089 -1)" fill="none" stroke="#fff" stroke-miterlimit="10" stroke-width="3"/>
      <path id="Path_34236" data-name="Path 34236" d="M51.568,20a1.63,1.63,0,0,1-.652,2.709c-2.46.8-9.821,3.267-9.821,3.267a1.5,1.5,0,0,1-.463.073A1.721,1.721,0,0,1,39,24.418a1.546,1.546,0,0,1,.072-.463s2.463-7.363,3.267-9.823a1.632,1.632,0,0,1,2.7-.657Z" transform="translate(-39 6.541)" fill="none" stroke="#fff" stroke-miterlimit="10" stroke-width="3"/>
    </g>
  </g>
</svg>
