<svg xmlns="http://www.w3.org/2000/svg" width="64.5" height="62.5" viewBox="0 0 64.5 62.5">
  <g id="update_profile" transform="translate(-0.75 -1.75)">
    <g id="Group_3185" data-name="Group 3185">
      <path id="Path_34324" data-name="Path 34324" d="M31.8,31.829c4.308,0,7.8-3.991,7.8-8.914S36.108,14,31.8,14,24,17.991,24,22.914,27.492,31.829,31.8,31.829Z" transform="translate(2.305 1.207)" fill="none" stroke="#60cb5f" stroke-miterlimit="10" stroke-width="2.5"/>
      <path id="Path_34325" data-name="Path 34325" d="M21,44.029V39.571A5.572,5.572,0,0,1,26.571,34H37.714a5.572,5.572,0,0,1,5.571,5.571v4.457" transform="translate(1.959 3.425)" fill="none" stroke="#60cb5f" stroke-miterlimit="10" stroke-width="2.5"/>
    </g>
    <g id="Group_3186" data-name="Group 3186">
      <path id="Path_34326" data-name="Path 34326" d="M55.229,52H53v2.229h2.229Z" transform="translate(5.428 5.429)" fill="#68bfca"/>
      <path id="Path_34327" data-name="Path 34327" d="M58.229,48H56v2.229h2.229Z" transform="translate(5.771 4.971)" fill="#68bfca"/>
      <path id="Path_34328" data-name="Path 34328" d="M51.229,55H49v2.229h2.229Z" transform="translate(4.971 5.771)" fill="#68bfca"/>
      <path id="Path_34329" data-name="Path 34329" d="M24.445,12.22A22.224,22.224,0,1,1,13.83,41.151L16.824,39.9a1.112,1.112,0,0,0,.248-1.9l-9.959-7.77a1.105,1.105,0,0,0-1.758.6L2.033,44.16A1.079,1.079,0,0,0,2,44.43,1.109,1.109,0,0,0,3.107,45.54a1.09,1.09,0,0,0,.431-.088l3.134-1.311a29.916,29.916,0,1,0,50.085-31.5" transform="translate(0 0.8)" fill="none" stroke="#68bfca" stroke-miterlimit="10" stroke-width="2.5"/>
      <path id="Path_34330" data-name="Path 34330" d="M18.189,14.779a22.158,22.158,0,0,1,1.778-1.341" transform="translate(1.73 1.159)" fill="none" stroke="#68bfca" stroke-miterlimit="10" stroke-width="2.5"/>
      <path id="Path_34331" data-name="Path 34331" d="M14.4,19.039a22.528,22.528,0,0,1,1.4-1.859" transform="translate(1.326 1.574)" fill="none" stroke="#68bfca" stroke-miterlimit="10" stroke-width="2.5"/>
      <path id="Path_34332" data-name="Path 34332" d="M10.343,13.712a30.088,30.088,0,0,1,42.6-3.469" transform="translate(0.953)" fill="none" stroke="#68bfca" stroke-miterlimit="10" stroke-width="2.5"/>
      <path id="Path_34333" data-name="Path 34333" d="M7.422,17.025q.528-.944,1.122-1.848" transform="translate(0.619 1.352)" fill="none" stroke="#68bfca" stroke-miterlimit="10" stroke-width="2.5"/>
      <path id="Path_34334" data-name="Path 34334" d="M5.589,21.043q.343-.951.747-1.873" transform="translate(0.41 1.795)" fill="none" stroke="#68bfca" stroke-miterlimit="10" stroke-width="2.5"/>
    </g>
  </g>
</svg>
