<svg xmlns="http://www.w3.org/2000/svg" width="57.293" height="59.916" viewBox="0 0 57.293 59.916">
  <g id="add_user" transform="translate(-3.75 -2.122)">
    <path id="Path_34335" data-name="Path 34335" d="M33.834,27.562V22.1A7.494,7.494,0,0,0,28.481,9.363H20.987c-4.282,0-7.862-2.342-11.367-5.5A14.985,14.985,0,0,0,6,13.645c0,4.73,4.793,8.564,10.705,8.564" transform="translate(0.071 0)" fill="none" stroke="#60cb5f" stroke-miterlimit="10" stroke-width="2.5"/>
    <path id="Path_34336" data-name="Path 34336" d="M10,19.4v8.135a11.776,11.776,0,0,0,23.552,0V25.395" transform="translate(0.353 1.114)" fill="none" stroke="#60cb5f" stroke-miterlimit="10" stroke-width="2.5"/>
    <path id="Path_34337" data-name="Path 34337" d="M18.283,33.679a7.5,7.5,0,0,0,9.552-3.437" transform="translate(0.889 1.882)" fill="none" stroke="#60cb5f" stroke-miterlimit="10" stroke-width="2.5"/>
    <path id="Path_34338" data-name="Path 34338" d="M17.846,37.25v3.413a2.14,2.14,0,0,1-1.622,2.077l-6.359,1.59A6.425,6.425,0,0,0,5,50.562v8.9" transform="translate(0 2.395)" fill="none" stroke="#60cb5f" stroke-miterlimit="10" stroke-width="2.5"/>
    <path id="Path_34339" data-name="Path 34339" d="M25,37.25v3.413a2.14,2.14,0,0,0,1.622,2.077l6.359,1.59a6.2,6.2,0,0,1,.759.241" transform="translate(1.339 2.384)" fill="none" stroke="#60cb5f" stroke-miterlimit="10" stroke-width="2.5"/>
    <path id="Path_34340" data-name="Path 34340" d="M13.334,42.917a11.845,11.845,0,0,0,16.409,0" transform="translate(0.552 2.785)" fill="none" stroke="#60cb5f" stroke-miterlimit="10" stroke-width="2.5"/>
    <g id="Group_3187" data-name="Group 3187">
      <path id="Path_34341" data-name="Path 34341" d="M44.776,58.552A11.776,11.776,0,1,0,33,46.776,11.776,11.776,0,0,0,44.776,58.552Z" transform="translate(1.82 2.237)" fill="none" stroke="#68bfca" stroke-miterlimit="10" stroke-width="2.5"/>
      <path id="Path_34342" data-name="Path 34342" d="M0,0V5.325" transform="translate(41.326 48.514) rotate(-45)" fill="none" stroke="#68bfca" stroke-miterlimit="10" stroke-width="2.5"/>
      <path id="Path_34343" data-name="Path 34343" d="M0,0H10.664" transform="translate(44.321 53.05) rotate(-45)" fill="none" stroke="#68bfca" stroke-miterlimit="10" stroke-width="2.5"/>
      <path id="Path_34344" data-name="Path 34344" d="M45.982,31.121A16.144,16.144,0,0,0,44,31" transform="translate(2.631 1.935)" fill="none" stroke="#68bfca" stroke-miterlimit="10" stroke-width="2.5"/>
      <path id="Path_34345" data-name="Path 34345" d="M57.1,38.168a16.1,16.1,0,0,0-8.789-6.539" transform="translate(2.9 1.982)" fill="none" stroke="#68bfca" stroke-miterlimit="10" stroke-width="2.5"/>
      <path id="Path_34346" data-name="Path 34346" d="M46,23h6.423" transform="translate(2.738 1.364)" fill="none" stroke="#68bfca" stroke-miterlimit="10" stroke-width="2.5"/>
      <path id="Path_34347" data-name="Path 34347" d="M44.36,16.082l5.731-3.309" transform="translate(2.621 0.636)" fill="none" stroke="#68bfca" stroke-miterlimit="10" stroke-width="2.5"/>
      <path id="Path_34348" data-name="Path 34348" d="M39.107,11.072l3.34-5.786" transform="translate(2.297 0.101)" fill="none" stroke="#68bfca" stroke-miterlimit="10" stroke-width="2.5"/>
    </g>
  </g>
</svg>
