<svg xmlns="http://www.w3.org/2000/svg" width="56.249" height="62.999" viewBox="0 0 56.249 62.999">
  <g id="search" transform="translate(-6.252 -1.525)">
    <g id="Group_3184" data-name="Group 3184">
      <path id="Path_34305" data-name="Path 34305" d="M27.808,48.617A18.808,18.808,0,1,0,9,29.808,18.808,18.808,0,0,0,27.808,48.617Z" transform="translate(0.426 0.848)" fill="none" stroke="#60cb5f" stroke-miterlimit="10" stroke-width="3"/>
      <path id="Path_34306" data-name="Path 34306" d="M35.259,42.791,51.892,59.424a2.671,2.671,0,0,0,3.777,0l1.755-1.755a2.671,2.671,0,0,0,0-3.777L40.791,37.259" transform="translate(2.795 2.818)" fill="none" stroke="#60cb5f" stroke-miterlimit="10" stroke-width="3"/>
    </g>
    <path id="Path_34310" data-name="Path 34310" d="M20.8,3.776a27.571,27.571,0,0,0-10.475,5.25" transform="translate(0.567 0.08)" fill="none" stroke="#68bfca" stroke-miterlimit="10" stroke-width="3"/>
    <path id="Path_34311" data-name="Path 34311" d="M25.1,3.027a27.807,27.807,0,0,0-2.967.3" transform="translate(1.672 0)" fill="none" stroke="#68bfca" stroke-miterlimit="10" stroke-width="3"/>
    <path id="Path_34312" data-name="Path 34312" d="M30.158,3.326a27.956,27.956,0,0,0-3.052-.3" transform="translate(2.157)" fill="none" stroke="#68bfca" stroke-miterlimit="10" stroke-width="3"/>
    <path id="Path_34313" data-name="Path 34313" d="M35.055,4.672a27.3,27.3,0,0,0-2.849-.9" transform="translate(2.655 0.08)" fill="none" stroke="#68bfca" stroke-miterlimit="10" stroke-width="3"/>
    <path id="Path_34314" data-name="Path 34314" d="M39.7,7.07c-.774-.5-1.613-1-2.437-1.417" transform="translate(3.151 0.28)" fill="none" stroke="#68bfca" stroke-miterlimit="10" stroke-width="3"/>
    <path id="Path_34315" data-name="Path 34315" d="M51.187,32.5a28.035,28.035,0,0,0,.178-3.155,27.524,27.524,0,0,0-3.8-13.993" transform="translate(4.103 1.054)" fill="none" stroke="#68bfca" stroke-miterlimit="10" stroke-width="3"/>
    <path id="Path_34316" data-name="Path 34316" d="M50,35.222q.3-1.024.52-2.08" transform="translate(4.362 2.736)" fill="none" stroke="#68bfca" stroke-miterlimit="10" stroke-width="3"/>
    <path id="Path_34317" data-name="Path 34317" d="M34,51.775q1.128-.382,2.213-.855" transform="translate(2.833 4.271)" fill="none" stroke="#68bfca" stroke-miterlimit="10" stroke-width="3"/>
    <path id="Path_34318" data-name="Path 34318" d="M30,52.725q1.122-.181,2.213-.449" transform="translate(2.443 4.415)" fill="none" stroke="#68bfca" stroke-miterlimit="10" stroke-width="3"/>
    <path id="Path_34319" data-name="Path 34319" d="M13.178,49.466a27.533,27.533,0,0,0,14.186,3.91q1.064,0,2.109-.08" transform="translate(0.774 4.116)" fill="none" stroke="#68bfca" stroke-miterlimit="10" stroke-width="3"/>
    <path id="Path_34320" data-name="Path 34320" d="M7.154,44.427a27.827,27.827,0,0,0,3.819,3.621" transform="translate(0.229 3.744)" fill="none" stroke="#68bfca" stroke-miterlimit="10" stroke-width="3"/>
    <path id="Path_34321" data-name="Path 34321" d="M13.7,24.646a14.42,14.42,0,0,1,8.868-8.922" transform="translate(0.839 1.128)" fill="none" stroke="#68bfca" stroke-miterlimit="10" stroke-width="3"/>
    <path id="Path_34322" data-name="Path 34322" d="M13,28.2a14.6,14.6,0,0,1,.148-2.076" transform="translate(0.851 2.099)" fill="none" stroke="#68bfca" stroke-miterlimit="10" stroke-width="3"/>
  </g>
</svg>
