<svg xmlns="http://www.w3.org/2000/svg" width="60.756" height="60.838" viewBox="0 0 60.756 60.838">
  <g id="shield" transform="translate(-1 -0.886)">
    <g id="Group_3189" data-name="Group 3189">
      <path id="Path_34370" data-name="Path 34370" d="M11,15.306c8.491,0,15.906-2.716,19.9-6.755,4,4.039,11.412,6.755,19.9,6.755v19.4a15.714,15.714,0,0,1-6.259,12.55L30.9,57.534,17.259,47.257A15.714,15.714,0,0,1,11,34.705Z" transform="translate(0.475 0.344)" fill="none" stroke="#60cb5f" stroke-miterlimit="10" stroke-width="2.5"/>
      <path id="Path_34373" data-name="Path 34373" d="M17.1,26H15v2.1h2.1Z" transform="translate(0.666 1.173)" fill="#60cb5f"/>
      <path id="Path_34374" data-name="Path 34374" d="M17.1,30H15v2.1h2.1Z" transform="translate(0.666 1.363)" fill="#60cb5f"/>
      <path id="Path_34375" data-name="Path 34375" d="M17.1,34H15v2.1h2.1Z" transform="translate(0.666 1.553)" fill="#60cb5f"/>
    </g>
    <path id="Path_34371" data-name="Path 34371" d="M45.6,30v3.159A12.57,12.57,0,0,1,40.591,43.2l-8.185,6.166" transform="translate(1.492 1.363)" fill="none" stroke="#68bfca" stroke-miterlimit="10" stroke-width="2.5"/>
    <path id="Path_34372" data-name="Path 34372" d="M1,30H6.238" transform="translate(0 1.363)" fill="none" stroke="#68bfca" stroke-miterlimit="10" stroke-width="2.5"/>
    <path id="Path_34376" data-name="Path 34376" d="M22.3,5.9,20.641,1.313" transform="translate(0.933)" fill="none" stroke="#68bfca" stroke-miterlimit="10" stroke-width="2.5"/>
    <path id="Path_34377" data-name="Path 34377" d="M8.888,46.516,5.165,48.761" transform="translate(0.198 2.148)" fill="none" stroke="#68bfca" stroke-miterlimit="10" stroke-width="2.5"/>
    <path id="Path_34378" data-name="Path 34378" d="M7.71,13.623l-4.272-3.06" transform="translate(0.116 0.44)" fill="none" stroke="#68bfca" stroke-miterlimit="10" stroke-width="2.5"/>
    <path id="Path_34379" data-name="Path 34379" d="M22.3,54.313l-1.563,4.481" transform="translate(0.938 2.519)" fill="none" stroke="#68bfca" stroke-miterlimit="10" stroke-width="2.5"/>
    <path id="Path_34380" data-name="Path 34380" d="M59.238,30H54" transform="translate(2.519 1.363)" fill="none" stroke="#68bfca" stroke-miterlimit="10" stroke-width="2.5"/>
    <path id="Path_34381" data-name="Path 34381" d="M37.771,5.9l1.663-4.583" transform="translate(1.747)" fill="none" stroke="#68bfca" stroke-miterlimit="10" stroke-width="2.5"/>
    <path id="Path_34382" data-name="Path 34382" d="M51.281,46.516,55,48.761" transform="translate(2.389 2.148)" fill="none" stroke="#68bfca" stroke-miterlimit="10" stroke-width="2.5"/>
    <path id="Path_34383" data-name="Path 34383" d="M52.484,13.623l4.273-3.06" transform="translate(2.447 0.44)" fill="none" stroke="#68bfca" stroke-miterlimit="10" stroke-width="2.5"/>
    <path id="Path_34384" data-name="Path 34384" d="M37.771,54.313l1.563,4.481" transform="translate(1.747 2.519)" fill="none" stroke="#68bfca" stroke-miterlimit="10" stroke-width="2.5"/>
    <path id="Path_34385" data-name="Path 34385" d="M45,28.143V25" transform="translate(2.091 1.126)" fill="none" stroke="#68bfca" stroke-miterlimit="10" stroke-width="2.5"/>
  </g>
</svg>
