<svg xmlns="http://www.w3.org/2000/svg" width="72.695" height="51.252" viewBox="0 0 72.695 51.252">
  <g id="vision_white" transform="translate(0.884 -3)">
    <path id="Path_34238" data-name="Path 34238" d="M33.1,50.509a17.932,17.932,0,0,0,18.1-17.754A17.932,17.932,0,0,0,33.1,15,17.932,17.932,0,0,0,15,32.754,17.932,17.932,0,0,0,33.1,50.509Z" transform="translate(2.308 1.993)" fill="none" stroke="#fff" stroke-miterlimit="10" stroke-width="3.5"/>
    <path id="Path_34251" data-name="Path 34251" d="M20.872,26.831A5.916,5.916,0,1,0,15,20.915,5.894,5.894,0,0,0,20.872,26.831Z" transform="translate(14.539 13.849)" fill="none" stroke="#fff" stroke-miterlimit="10" stroke-width="3.5"/>
    <path id="Path_34243" data-name="Path 34243" d="M30,3V8.853" transform="translate(5.412 0)" fill="none" stroke="#fff" stroke-miterlimit="10" stroke-width="3.5"/>
    <path id="Path_34244" data-name="Path 34244" d="M49.1,6.438,45.438,10.1" transform="translate(8.388 0.586)" fill="none" stroke="#fff" stroke-miterlimit="10" stroke-width="3.5"/>
    <path id="Path_34245" data-name="Path 34245" d="M11.406,6.406l3.722,3.722" transform="translate(1.896 0.581)" fill="none" stroke="#fff" stroke-miterlimit="10" stroke-width="3.5"/>
    <g id="Group_2713" data-name="Group 2713" transform="translate(1.468 16.074)">
      <path id="Path_34237" data-name="Path 34237" d="M35.322,50.455c14.281,0,28.562-8.273,33.322-16.546C63.883,24.455,48.413,15,35.322,15,21.041,15,6.76,24.455,2,33.909,7.95,43.364,22.231,50.455,35.322,50.455Z" transform="translate(-1.377 -14.027)" fill="none" stroke="#fff" stroke-miterlimit="10" stroke-width="3.5"/>
      <path id="Path_34249" data-name="Path 34249" d="M50.141,17.487a43.341,43.341,0,0,1,9.933,8.535" transform="translate(8.926 -15.2)" fill="none" stroke="#fff" stroke-miterlimit="10" stroke-width="3.5"/>
      <path id="Path_34250" data-name="Path 34250" d="M1.468,26.139A44.318,44.318,0,0,1,14.626,15.544" transform="translate(-2.468 -15.544)" fill="none" stroke="#fff" stroke-miterlimit="10" stroke-width="3.5"/>
    </g>
  </g>
</svg>
